<?xml version="1.0" encoding="utf-8"?>
<!-- Generator: Adobe Illustrator 19.0.0, SVG Export Plug-In . SVG Version: 6.00 Build 0)  -->
<svg version="1.1" id="Layer_1" xmlns="http://www.w3.org/2000/svg" xmlns:xlink="http://www.w3.org/1999/xlink" x="0px" y="0px"
	 viewBox="-297 242.8 603.4 116.2" style="enable-background:new -297 242.8 603.4 116.2;" xml:space="preserve">
<polygon points="-297,245.8 -297,356.1 -151.8,356.1 -151.8,324.5 -249.7,324.5 -249.7,316.6 -151.8,316.6 -151.8,285.1 
	-249.7,285.1 -249.7,277.2 -151.8,277.2 -151.8,245.8 "/>
<polygon points="8.1,245.8 8.1,356.1 55.4,356.1 55.4,316.6 153.3,316.6 153.3,285.1 55.4,285.1 55.4,277.2 153.3,277.2 
	153.3,245.8 "/>
<polygon points="161.2,245.8 161.2,356.1 208.5,356.1 208.5,316.6 306.4,316.6 306.4,285.1 208.5,285.1 208.5,277.2 306.4,277.2 
	306.4,245.8 "/>
<g>
	<path d="M-143.9,245.8h10.6v4.8h-6v8.3h4.3v5.1h-4.3v8.7h6v4.8h-10.6V245.8z"/>
	<path d="M-130.8,245.8h4.6V273h6.1v4.3h-10.8L-130.8,245.8L-130.8,245.8z"/>
	<path d="M-117.6,245.8h10.6v4.8h-6v8.3h4.3v5.1h-4.3v8.7h6v4.8h-10.6V245.8z"/>
	<path d="M-92.2,266.5v4.3c0,1.3-0.3,2.4-0.8,3.4c-0.4,0.9-1,1.7-1.8,2.3c-0.9,0.7-2,1.1-3.6,1.1c-1.5,0-2.7-0.4-3.6-1.1
		c-0.9-0.6-1.4-1.5-1.8-2.3c-0.5-1-0.7-2.1-0.8-3.4v-18.5c0-1.2,0.3-2.4,0.8-3.4c0.4-0.9,0.9-1.7,1.8-2.4c0.9-0.6,2.1-1.1,3.6-1.1
		s2.7,0.4,3.6,1.1c0.9,0.6,1.5,1.5,1.8,2.4c0.5,1,0.7,2.1,0.8,3.4v4.3h-4.3v-4.3c0-0.9-0.2-1.5-0.7-2c-0.2-0.2-0.6-0.3-1.1-0.3
		c-0.8,0-1.2,0.6-1.4,1.2c-0.1,0.3-0.2,0.7-0.2,1.2v18.6c0,0.9,0.3,1.5,0.7,2c0.2,0.2,0.5,0.3,0.9,0.3c1,0,1.4-0.5,1.6-1.2
		c0.1-0.3,0.2-0.7,0.2-1.2v-4.3L-92.2,266.5L-92.2,266.5z"/>
	<path d="M-90.8,250.6v-4.8h13.4v4.8h-4.4v26.8h-4.6v-26.8H-90.8z"/>
	<path d="M-67.1,277.4l-2.4-13.3h-1.2v13.3h-4.6v-31.6h4.6c5.5,0,7.9,3.1,7.9,9.1c0,3.1-0.8,6-2.6,7.2l3,15.3H-67.1z M-70.7,259.6
		c0.6,0,1.5-0.1,2.2-0.7s1.2-1.8,1.2-4c0-2.2-0.6-3.4-1.2-4c-0.7-0.6-1.5-0.6-2.2-0.6V259.6z"/>
	<path d="M-47.6,270.9c0,1.3-0.3,2.4-0.8,3.4c-0.4,0.9-1,1.7-1.8,2.3c-0.9,0.7-2,1.1-3.6,1.1c-1.5,0-2.7-0.4-3.6-1.1
		c-0.9-0.6-1.4-1.5-1.8-2.3c-0.5-1-0.7-2.1-0.8-3.4v-18.6c0-1.2,0.3-2.4,0.8-3.4c0.4-0.9,0.9-1.7,1.8-2.4c0.9-0.6,2.1-1.1,3.6-1.1
		s2.7,0.4,3.6,1.1c0.9,0.6,1.5,1.5,1.8,2.4c0.5,1,0.7,2.1,0.8,3.4V270.9z M-52.2,252.2c0-0.9-0.2-1.5-0.6-2
		c-0.2-0.2-0.6-0.3-0.9-0.3c-0.8,0-1.2,0.6-1.4,1.2c-0.1,0.3-0.2,0.7-0.2,1.2v18.6c0,0.9,0.2,1.5,0.6,2c0.2,0.2,0.5,0.3,0.9,0.3
		c0.8,0,1.2-0.5,1.4-1.2c0.1-0.3,0.2-0.7,0.2-1.2V252.2z"/>
	<path d="M-39.3,260.9l-0.4-1.5H-40v17.9h-4.3v-31.5h4.1l4.5,16.4l0.4,1.5h0.3v-17.9h4.3v31.6h-4.1L-39.3,260.9z"/>
	<path d="M-27.1,245.8h4.6v31.6h-4.6V245.8z"/>
	<path d="M-6.7,266.5v4.3c0,1.3-0.3,2.4-0.8,3.4c-0.4,0.9-1,1.7-1.8,2.3c-0.9,0.7-2,1.1-3.6,1.1c-1.5,0-2.7-0.4-3.6-1.1
		c-0.9-0.6-1.4-1.5-1.8-2.3c-0.5-1-0.7-2.1-0.8-3.4v-18.5c0-1.2,0.3-2.4,0.8-3.4c0.4-0.9,0.9-1.7,1.8-2.4c0.9-0.6,2.1-1.1,3.6-1.1
		s2.7,0.4,3.6,1.1c0.9,0.6,1.5,1.5,1.8,2.4c0.5,1,0.7,2.1,0.8,3.4v4.3H-11v-4.3c0-0.9-0.2-1.5-0.7-2c-0.2-0.2-0.6-0.3-1.1-0.3
		c-0.8,0-1.2,0.6-1.4,1.2c-0.1,0.3-0.2,0.7-0.2,1.2v18.6c0,0.9,0.3,1.5,0.7,2c0.2,0.2,0.5,0.3,0.9,0.3c1,0,1.4-0.5,1.6-1.2
		c0.1-0.3,0.2-0.7,0.2-1.2v-4.3L-6.7,266.5L-6.7,266.5z"/>
	<path d="M-133.3,290h-6v8.3h4.3v4.8h-4.3v13.7h-4.6v-31.6h10.6V290z"/>
	<path d="M-122.5,316.8l-2.4-13.3h-1.2v13.3h-4.6v-31.6h4.6c5.5,0,7.9,3.1,7.9,9.1c0,3.1-0.8,6-2.6,7.2l3,15.3H-122.5z
		 M-126.1,299.1c0.6,0,1.5-0.1,2.2-0.7s1.2-1.8,1.2-4s-0.6-3.4-1.2-4c-0.7-0.6-1.5-0.6-2.2-0.6V299.1z"/>
	<path d="M-103,310.2c0,1.3-0.3,2.4-0.8,3.4c-0.4,0.9-1,1.7-1.8,2.3c-0.9,0.7-2,1.1-3.6,1.1c-1.5,0-2.7-0.4-3.6-1.1
		c-0.9-0.6-1.4-1.5-1.8-2.3c-0.5-1-0.7-2.1-0.8-3.4v-18.6c0-1.2,0.3-2.4,0.8-3.4c0.4-0.9,0.9-1.7,1.8-2.4c0.9-0.6,2.1-1.1,3.6-1.1
		s2.7,0.4,3.6,1.1c0.9,0.6,1.5,1.5,1.8,2.4c0.5,1,0.7,2.1,0.8,3.4V310.2z M-107.6,291.6c0-0.9-0.2-1.5-0.6-2
		c-0.2-0.2-0.6-0.3-0.9-0.3c-0.8,0-1.2,0.6-1.4,1.2c-0.1,0.3-0.2,0.7-0.2,1.2v18.6c0,0.9,0.2,1.5,0.6,2c0.2,0.2,0.5,0.3,0.9,0.3
		c0.8,0,1.2-0.5,1.4-1.2c0.1-0.3,0.2-0.7,0.2-1.2V291.6z"/>
	<path d="M-94.7,300.2l-0.4-1.5h-0.3v17.9h-4.3v-31.5h4.1l4.5,16.4l0.4,1.5h0.3v-17.9h4.3v31.6h-4.1L-94.7,300.2z"/>
	<path d="M-84.1,290v-4.8h13.4v4.8h-4.4v26.8h-4.6V290H-84.1z"/>
	<path d="M-68.7,285.1h4.6v31.6h-4.6V285.1z"/>
	<path d="M-60.4,285.1h10.6v4.8h-6v8.3h4.3v5.1h-4.3v8.7h6v4.8h-10.6V285.1z"/>
	<path d="M-38.7,316.8l-2.4-13.3h-1.2v13.3H-47v-31.6h4.6c5.5,0,7.9,3.1,7.9,9.1c0,3.1-0.8,6-2.6,7.2l3,15.3H-38.7z M-42.3,299.1
		c0.6,0,1.5-0.1,2.2-0.7s1.2-1.8,1.2-4s-0.6-3.4-1.2-4c-0.7-0.6-1.5-0.6-2.2-0.6V299.1z"/>
	<path d="M-133.3,329.4h-6v8.3h4.3v4.8h-4.3v13.7h-4.6v-31.6h10.6V329.4z"/>
	<path d="M-118.7,349.6c0,1.3-0.3,2.4-0.8,3.4c-0.4,0.9-1,1.7-1.8,2.3c-0.9,0.7-2,1.1-3.6,1.1c-1.5,0-2.7-0.4-3.6-1.1
		c-0.9-0.6-1.4-1.5-1.8-2.3c-0.5-1-0.7-2.1-0.8-3.4V331c0-1.2,0.3-2.4,0.8-3.4c0.4-0.9,0.9-1.7,1.8-2.4c0.9-0.6,2.1-1.1,3.6-1.1
		s2.7,0.4,3.6,1.1c0.9,0.6,1.5,1.5,1.8,2.4c0.5,1,0.7,2.1,0.8,3.4V349.6z M-123.3,331c0-0.9-0.2-1.5-0.6-2c-0.2-0.2-0.6-0.3-0.9-0.3
		c-0.8,0-1.2,0.6-1.4,1.2c-0.1,0.3-0.2,0.7-0.2,1.2v18.6c0,0.9,0.2,1.5,0.6,2c0.2,0.2,0.5,0.3,0.9,0.3c0.8,0,1.2-0.5,1.4-1.2
		c0.1-0.3,0.2-0.7,0.2-1.2V331z"/>
	<path d="M-103,324.5v25.1c0,1.3-0.3,2.4-0.8,3.4c-0.4,0.9-1,1.7-1.8,2.3c-0.9,0.7-2,1.1-3.6,1.1c-1.5,0-2.7-0.4-3.6-1.1
		c-0.9-0.6-1.4-1.5-1.8-2.3c-0.5-1-0.7-2.1-0.8-3.4v-25.1h4.6v25.1c0,0.9,0.2,1.5,0.6,2c0.2,0.2,0.5,0.3,0.9,0.3
		c0.8,0,1.2-0.5,1.4-1.2c0.1-0.3,0.2-0.7,0.2-1.2v-25L-103,324.5L-103,324.5z"/>
	<path d="M-94.5,339.6l-0.4-1.5h-0.3v18h-4.3v-31.6h4.1l4.5,16.4l0.4,1.5h0.3v-17.9h4.3v31.6H-90L-94.5,339.6z"/>
	<path d="M-82.2,356.1v-31.6h3.7c4.3,0,6.6,0.9,7.9,3.3c1.2,2.4,1.4,6.4,1.4,12.5c0,6.2-0.2,10.1-1.4,12.5c-1.2,2.4-3.6,3.3-7.9,3.3
		C-78.5,356.1-82.2,356.1-82.2,356.1z M-77.6,351.5c1.6,0,2.5-0.2,3-1.7c0.2-0.7,0.4-1.8,0.4-3.4c0-1.5,0-3.5,0-6.1s0-4.6,0-6.1
		s-0.2-2.6-0.4-3.4c-0.5-1.5-1.4-1.7-3-1.7V351.5z"/>
	<path d="M-67.7,356.1l4.8-31.6h5.7l4.8,31.6H-57l-0.9-6.4h-4.5l-0.9,6.4H-67.7z M-59.8,334.9l-0.1-0.8h-0.3l-0.1,0.8l-1.3,10h3.2
		L-59.8,334.9z"/>
	<path d="M-53.1,329.4v-4.8h13.4v4.8h-4.4v26.8h-4.6v-26.8H-53.1z"/>
	<path d="M-37,324.5h4.6v31.6H-37V324.5z"/>
	<path d="M-16.7,349.6c0,1.3-0.3,2.4-0.8,3.4c-0.4,0.9-1,1.7-1.8,2.3c-0.9,0.7-2,1.1-3.6,1.1c-1.5,0-2.7-0.4-3.6-1.1
		c-0.9-0.6-1.4-1.5-1.8-2.3c-0.5-1-0.7-2.1-0.8-3.4V331c0-1.2,0.3-2.4,0.8-3.4c0.4-0.9,0.9-1.7,1.8-2.4c0.9-0.6,2.1-1.1,3.6-1.1
		s2.7,0.4,3.6,1.1c0.9,0.6,1.5,1.5,1.8,2.4c0.5,1,0.7,2.1,0.8,3.4V349.6z M-21.3,331c0-0.9-0.2-1.5-0.6-2c-0.2-0.2-0.6-0.3-0.9-0.3
		c-0.8,0-1.2,0.6-1.4,1.2c-0.1,0.3-0.2,0.7-0.2,1.2v18.6c0,0.9,0.2,1.5,0.6,2c0.2,0.2,0.5,0.3,0.9,0.3c0.8,0,1.2-0.5,1.4-1.2
		c0.1-0.3,0.2-0.7,0.2-1.2V331z"/>
	<path d="M-8.4,339.6l-0.4-1.5h-0.3v18h-4.3v-31.6h4.1l4.5,16.4l0.4,1.5h0.3v-17.9h4.3v31.6h-4.1L-8.4,339.6z"/>
</g>
</svg>
