<?xml version="1.0" encoding="utf-8"?>
<!-- Generator: Adobe Illustrator 19.0.0, SVG Export Plug-In . SVG Version: 6.00 Build 0)  -->
<svg version="1.1" id="Layer_1" xmlns="http://www.w3.org/2000/svg" xmlns:xlink="http://www.w3.org/1999/xlink" x="0px" y="0px"
	 viewBox="0 0 423.7 56.1" style="enable-background:new 0 0 423.7 56.1;" xml:space="preserve">
<style type="text/css">
	.st0{fill:#FFFFFF;}
</style>
<g id="XMLID_3_">
	<g id="XMLID_84_">
		<polygon id="XMLID_87_" points="48.3,10.8 43.3,10.8 38.3,10.8 33.2,10.8 28.2,10.8 23.2,10.8 18.2,10.8 13.2,10.8 13.2,15.9 
			13.2,20.9 13.2,23.4 13.2,25.9 13.2,28.4 13.2,30.9 13.2,33.4 13.2,35.9 13.2,40.9 13.2,46 18.2,46 23.2,46 28.2,46 33.2,46 
			38.3,46 43.3,46 48.3,46 53.3,46 59.4,46 59.4,40.9 59.4,35.9 53.3,35.9 48.3,35.9 43.3,35.9 38.3,35.9 33.2,35.9 28.2,35.9 
			28.2,33.4 33.2,33.4 38.3,33.4 43.3,33.4 48.3,33.4 53.3,33.4 59.4,33.4 59.4,28.4 59.4,23.4 53.3,23.4 48.3,23.4 43.3,23.4 
			38.3,23.4 33.2,23.4 28.2,23.4 28.2,20.9 33.2,20.9 38.3,20.9 43.3,20.9 48.3,20.9 53.3,20.9 59.4,20.9 59.4,15.9 59.4,10.8 
			53.3,10.8 		"/>
		<polygon id="XMLID_86_" points="145.5,10.8 140.5,10.8 135.5,10.8 130.5,10.8 125.5,10.8 120.4,10.8 115.4,10.8 110.4,10.8 
			110.4,15.9 110.4,20.9 110.4,23.4 110.4,25.9 110.4,28.4 110.4,30.9 110.4,33.4 110.4,35.9 110.4,40.9 110.4,46 115.4,46 
			120.4,46 125.5,46 125.5,40.9 125.5,35.9 125.5,33.4 130.5,33.4 135.5,33.4 140.5,33.4 145.5,33.4 150.6,33.4 156.6,33.4 
			156.6,28.4 156.6,23.4 150.6,23.4 145.5,23.4 140.5,23.4 135.5,23.4 130.5,23.4 125.5,23.4 125.5,20.9 130.5,20.9 135.5,20.9 
			140.5,20.9 145.5,20.9 150.6,20.9 156.6,20.9 156.6,15.9 156.6,10.8 150.6,10.8 		"/>
		<polygon id="XMLID_85_" points="194.3,10.8 189.2,10.8 184.2,10.8 179.2,10.8 174.2,10.8 169.2,10.8 164.1,10.8 159.1,10.8 
			159.1,15.9 159.1,20.9 159.1,23.4 159.1,25.9 159.1,28.4 159.1,30.9 159.1,33.4 159.1,35.9 159.1,40.9 159.1,46 164.1,46 
			169.2,46 174.2,46 174.2,40.9 174.2,35.9 174.2,33.4 179.2,33.4 184.2,33.4 189.2,33.4 194.3,33.4 199.3,33.4 205.3,33.4 
			205.3,28.4 205.3,23.4 199.3,23.4 194.3,23.4 189.2,23.4 184.2,23.4 179.2,23.4 174.2,23.4 174.2,20.9 179.2,20.9 184.2,20.9 
			189.2,20.9 194.3,20.9 199.3,20.9 205.3,20.9 205.3,15.9 205.3,10.8 199.3,10.8 		"/>
	</g>
</g>
<g id="XMLID_2_">
	<polygon id="XMLID_80_" class="st0" points="61.9,10.8 65.3,10.8 65.3,12.3 63.3,12.3 63.3,15 64.7,15 64.7,16.6 63.3,16.6 
		63.3,19.4 65.3,19.4 65.3,20.9 61.9,20.9 	"/>
	<polygon id="XMLID_79_" class="st0" points="66.1,10.8 67.6,10.8 67.6,19.5 69.6,19.5 69.6,20.9 66.1,20.9 	"/>
	<polygon id="XMLID_78_" class="st0" points="70.3,10.8 73.7,10.8 73.7,12.3 71.7,12.3 71.7,15 73.1,15 73.1,16.6 71.7,16.6 
		71.7,19.4 73.7,19.4 73.7,20.9 70.3,20.9 	"/>
	<path id="XMLID_77_" class="st0" d="M78.4,17.4v1.4c0,0.4-0.1,0.8-0.2,1.1c-0.1,0.3-0.3,0.5-0.6,0.7c-0.3,0.2-0.6,0.3-1.1,0.3
		c-0.5,0-0.9-0.1-1.2-0.3c-0.3-0.2-0.5-0.5-0.6-0.7c-0.2-0.3-0.2-0.7-0.2-1.1v-5.9c0-0.4,0.1-0.8,0.2-1.1c0.1-0.3,0.3-0.5,0.6-0.8
		c0.3-0.2,0.7-0.3,1.2-0.3c0.5,0,0.9,0.1,1.1,0.3c0.3,0.2,0.5,0.5,0.6,0.8c0.2,0.3,0.2,0.7,0.2,1.1v1.4H77v-1.4
		c0-0.3-0.1-0.5-0.2-0.6c-0.1-0.1-0.2-0.1-0.3-0.1c-0.3,0-0.4,0.2-0.5,0.4c0,0.1-0.1,0.2-0.1,0.4v5.9c0,0.3,0.1,0.5,0.2,0.6
		c0.1,0.1,0.2,0.1,0.3,0.1c0.3,0,0.4-0.2,0.5-0.4c0-0.1,0.1-0.2,0.1-0.4v-1.4H78.4z"/>
	<polygon id="XMLID_76_" class="st0" points="78.8,12.3 78.8,10.8 83.1,10.8 83.1,12.3 81.7,12.3 81.7,20.9 80.2,20.9 80.2,12.3 	
		"/>
	<path id="XMLID_73_" class="st0" d="M86.4,20.9l-0.8-4.3h-0.4v4.3h-1.5V10.8h1.5c1.8,0,2.5,1,2.5,2.9c0,1-0.3,1.9-0.8,2.3l0.9,4.9
		H86.4z M85.3,15.3c0.2,0,0.5,0,0.7-0.2c0.2-0.2,0.4-0.6,0.4-1.3c0-0.7-0.2-1.1-0.4-1.3c-0.2-0.2-0.5-0.2-0.7-0.2V15.3z"/>
	<path id="XMLID_70_" class="st0" d="M92.6,18.8c0,0.4-0.1,0.8-0.2,1.1c-0.1,0.3-0.3,0.5-0.6,0.7c-0.3,0.2-0.6,0.3-1.1,0.3
		c-0.5,0-0.9-0.1-1.2-0.3c-0.3-0.2-0.5-0.5-0.6-0.7c-0.2-0.3-0.2-0.7-0.2-1.1v-5.9c0-0.4,0.1-0.8,0.2-1.1c0.1-0.3,0.3-0.5,0.6-0.8
		c0.3-0.2,0.7-0.3,1.2-0.3c0.5,0,0.9,0.1,1.1,0.3c0.3,0.2,0.5,0.5,0.6,0.8c0.2,0.3,0.2,0.7,0.2,1.1V18.8z M91.2,12.9
		c0-0.3-0.1-0.5-0.2-0.6c-0.1-0.1-0.2-0.1-0.3-0.1c-0.3,0-0.4,0.2-0.4,0.4c0,0.1-0.1,0.2-0.1,0.4v5.9c0,0.3,0.1,0.5,0.2,0.6
		c0.1,0.1,0.2,0.1,0.3,0.1c0.3,0,0.4-0.2,0.4-0.4c0-0.1,0.1-0.2,0.1-0.4V12.9z"/>
	<polygon id="XMLID_69_" class="st0" points="95.3,15.6 95.2,15.2 95.1,15.2 95.1,20.9 93.7,20.9 93.7,10.8 95,10.8 96.5,16.1 
		96.6,16.5 96.7,16.5 96.7,10.8 98,10.8 98,20.9 96.7,20.9 	"/>
	<rect id="XMLID_68_" x="99.2" y="10.8" class="st0" width="1.5" height="10.1"/>
	<path id="XMLID_67_" class="st0" d="M105.7,17.4v1.4c0,0.4-0.1,0.8-0.2,1.1c-0.1,0.3-0.3,0.5-0.6,0.7c-0.3,0.2-0.6,0.3-1.1,0.3
		c-0.5,0-0.9-0.1-1.2-0.3c-0.3-0.2-0.5-0.5-0.6-0.7c-0.2-0.3-0.2-0.7-0.2-1.1v-5.9c0-0.4,0.1-0.8,0.2-1.1c0.1-0.3,0.3-0.5,0.6-0.8
		c0.3-0.2,0.7-0.3,1.2-0.3c0.5,0,0.9,0.1,1.1,0.3c0.3,0.2,0.5,0.5,0.6,0.8c0.2,0.3,0.2,0.7,0.2,1.1v1.4h-1.4v-1.4
		c0-0.3-0.1-0.5-0.2-0.6c-0.1-0.1-0.2-0.1-0.3-0.1c-0.3,0-0.4,0.2-0.5,0.4c0,0.1-0.1,0.2-0.1,0.4v5.9c0,0.3,0.1,0.5,0.2,0.6
		c0.1,0.1,0.2,0.1,0.3,0.1c0.3,0,0.4-0.2,0.5-0.4c0-0.1,0.1-0.2,0.1-0.4v-1.4H105.7z"/>
	<polygon id="XMLID_66_" class="st0" points="65.4,24.9 63.3,24.9 63.3,27.5 64.7,27.5 64.7,29 63.3,29 63.3,33.4 61.9,33.4 
		61.9,23.3 65.4,23.3 	"/>
	<path id="XMLID_63_" class="st0" d="M68.7,33.4l-0.8-4.3h-0.4v4.3h-1.5V23.3h1.5c1.8,0,2.5,1,2.5,2.9c0,1-0.3,1.9-0.8,2.3l0.9,4.9
		H68.7z M67.5,27.8c0.2,0,0.5,0,0.7-0.2c0.2-0.2,0.4-0.6,0.4-1.3c0-0.7-0.2-1.1-0.4-1.3c-0.2-0.2-0.5-0.2-0.7-0.2V27.8z"/>
	<path id="XMLID_60_" class="st0" d="M74.9,31.3c0,0.4-0.1,0.8-0.2,1.1c-0.1,0.3-0.3,0.5-0.6,0.7c-0.3,0.2-0.6,0.3-1.1,0.3
		c-0.5,0-0.9-0.1-1.2-0.3c-0.3-0.2-0.5-0.5-0.6-0.7c-0.2-0.3-0.2-0.7-0.2-1.1v-5.9c0-0.4,0.1-0.8,0.2-1.1c0.1-0.3,0.3-0.5,0.6-0.8
		c0.3-0.2,0.7-0.3,1.2-0.3c0.5,0,0.9,0.1,1.1,0.3c0.3,0.2,0.5,0.5,0.6,0.8c0.2,0.3,0.2,0.7,0.2,1.1V31.3z M73.5,25.4
		c0-0.3-0.1-0.5-0.2-0.6c-0.1-0.1-0.2-0.1-0.3-0.1c-0.3,0-0.4,0.2-0.4,0.4c0,0.1-0.1,0.2-0.1,0.4v5.9c0,0.3,0.1,0.5,0.2,0.6
		c0.1,0.1,0.2,0.1,0.3,0.1c0.3,0,0.4-0.2,0.4-0.4c0-0.1,0.1-0.2,0.1-0.4V25.4z"/>
	<polygon id="XMLID_59_" class="st0" points="77.6,28.2 77.5,27.7 77.4,27.7 77.4,33.4 76,33.4 76,23.3 77.3,23.3 78.8,28.6 
		78.9,29.1 79,29.1 79,23.3 80.3,23.3 80.3,33.4 79,33.4 	"/>
	<polygon id="XMLID_58_" class="st0" points="81,24.9 81,23.3 85.3,23.3 85.3,24.9 83.9,24.9 83.9,33.4 82.4,33.4 82.4,24.9 	"/>
	<rect id="XMLID_57_" x="85.9" y="23.3" class="st0" width="1.5" height="10.1"/>
	<polygon id="XMLID_56_" class="st0" points="88.6,23.3 91.9,23.3 91.9,24.9 90,24.9 90,27.5 91.4,27.5 91.4,29.1 90,29.1 90,31.9 
		91.9,31.9 91.9,33.4 88.6,33.4 	"/>
	<path id="XMLID_53_" class="st0" d="M95.5,33.4l-0.8-4.3h-0.4v4.3h-1.5V23.3h1.5c1.8,0,2.5,1,2.5,2.9c0,1-0.3,1.9-0.8,2.3l0.9,4.9
		H95.5z M94.3,27.8c0.2,0,0.5,0,0.7-0.2c0.2-0.2,0.4-0.6,0.4-1.3c0-0.7-0.2-1.1-0.4-1.3c-0.2-0.2-0.5-0.2-0.7-0.2V27.8z"/>
	<polygon id="XMLID_52_" class="st0" points="65.4,37.4 63.3,37.4 63.3,40 64.7,40 64.7,41.6 63.3,41.6 63.3,46 61.9,46 61.9,35.9 
		65.4,35.9 	"/>
	<path id="XMLID_49_" class="st0" d="M69.9,43.9c0,0.4-0.1,0.8-0.2,1.1c-0.1,0.3-0.3,0.5-0.6,0.7c-0.3,0.2-0.6,0.3-1.1,0.3
		c-0.5,0-0.9-0.1-1.2-0.3c-0.3-0.2-0.5-0.5-0.6-0.7c-0.2-0.3-0.2-0.7-0.2-1.1v-5.9c0-0.4,0.1-0.8,0.2-1.1c0.1-0.3,0.3-0.5,0.6-0.8
		c0.3-0.2,0.7-0.3,1.2-0.3c0.5,0,0.9,0.1,1.1,0.3c0.3,0.2,0.5,0.5,0.6,0.8c0.2,0.3,0.2,0.7,0.2,1.1V43.9z M68.4,37.9
		c0-0.3-0.1-0.5-0.2-0.6c-0.1-0.1-0.2-0.1-0.3-0.1c-0.3,0-0.4,0.2-0.4,0.4c0,0.1-0.1,0.2-0.1,0.4v5.9c0,0.3,0.1,0.5,0.2,0.6
		c0.1,0.1,0.2,0.1,0.3,0.1c0.3,0,0.4-0.2,0.4-0.4c0-0.1,0.1-0.2,0.1-0.4V37.9z"/>
	<path id="XMLID_48_" class="st0" d="M74.9,35.9v8c0,0.4-0.1,0.8-0.2,1.1c-0.1,0.3-0.3,0.5-0.6,0.7c-0.3,0.2-0.6,0.3-1.1,0.3
		c-0.5,0-0.9-0.1-1.2-0.3c-0.3-0.2-0.5-0.5-0.6-0.7c-0.2-0.3-0.2-0.7-0.2-1.1v-8h1.5v8c0,0.3,0.1,0.5,0.2,0.6
		c0.1,0.1,0.2,0.1,0.3,0.1c0.3,0,0.4-0.2,0.4-0.4c0-0.1,0.1-0.2,0.1-0.4v-8H74.9z"/>
	<polygon id="XMLID_47_" class="st0" points="77.6,40.7 77.5,40.2 77.4,40.2 77.4,46 76.1,46 76.1,35.9 77.4,35.9 78.8,41.1 
		79,41.6 79,41.6 79,35.9 80.4,35.9 80.4,46 79.1,46 	"/>
	<path id="XMLID_44_" class="st0" d="M81.6,46V35.9h1.2c1.4,0,2.1,0.3,2.5,1c0.4,0.8,0.4,2,0.4,4c0,2-0.1,3.2-0.4,4
		c-0.4,0.8-1.1,1-2.5,1H81.6z M83.1,44.5c0.5,0,0.8-0.1,0.9-0.5c0.1-0.2,0.1-0.6,0.1-1.1c0-0.5,0-1.1,0-1.9c0-0.8,0-1.5,0-1.9
		c0-0.5-0.1-0.8-0.1-1.1c-0.2-0.5-0.4-0.5-0.9-0.5V44.5z"/>
	<path id="XMLID_41_" class="st0" d="M86.3,46l1.5-10.1h1.8L91.2,46h-1.4l-0.3-2.1H88L87.8,46H86.3z M88.8,39.1l0-0.3h-0.1l0,0.3
		l-0.4,3.2h1L88.8,39.1z"/>
	<polygon id="XMLID_40_" class="st0" points="91.1,37.4 91.1,35.9 95.4,35.9 95.4,37.4 94,37.4 94,46 92.5,46 92.5,37.4 	"/>
	<rect id="XMLID_39_" x="96.1" y="35.9" class="st0" width="1.5" height="10.1"/>
	<path id="XMLID_36_" class="st0" d="M102.6,43.9c0,0.4-0.1,0.8-0.2,1.1c-0.1,0.3-0.3,0.5-0.6,0.7c-0.3,0.2-0.6,0.3-1.1,0.3
		c-0.5,0-0.9-0.1-1.2-0.3c-0.3-0.2-0.5-0.5-0.6-0.7c-0.2-0.3-0.2-0.7-0.2-1.1v-5.9c0-0.4,0.1-0.8,0.2-1.1c0.1-0.3,0.3-0.5,0.6-0.8
		c0.3-0.2,0.7-0.3,1.2-0.3c0.5,0,0.9,0.1,1.1,0.3c0.3,0.2,0.5,0.5,0.6,0.8c0.2,0.3,0.2,0.7,0.2,1.1V43.9z M101.1,37.9
		c0-0.3-0.1-0.5-0.2-0.6c-0.1-0.1-0.2-0.1-0.3-0.1c-0.3,0-0.4,0.2-0.4,0.4c0,0.1-0.1,0.2-0.1,0.4v5.9c0,0.3,0.1,0.5,0.2,0.6
		c0.1,0.1,0.2,0.1,0.3,0.1c0.3,0,0.4-0.2,0.4-0.4c0-0.1,0.1-0.2,0.1-0.4V37.9z"/>
	<polygon id="XMLID_35_" class="st0" points="105.2,40.7 105.1,40.2 105,40.2 105,46 103.6,46 103.6,35.9 104.9,35.9 106.4,41.1 
		106.5,41.6 106.6,41.6 106.6,35.9 108,35.9 108,46 106.6,46 	"/>
</g>
<g id="XMLID_1_">
	<path id="XMLID_5_" class="st0" d="M224.3,10.7h6.2l5.2,34.9h-4.9l-0.9-7.1H225l-0.9,7.1h-5L224.3,10.7z M229.2,33.1l-1.5-11
		l-0.1-0.9h-0.3l-0.1,0.9l-1.5,11H229.2z"/>
	<path id="XMLID_8_" class="st0" d="M237.9,17.9c0-1.5,0.3-2.7,0.8-3.8c0.5-1.1,1.1-1.9,2-2.6c1.1-0.8,2.4-1.2,4-1.2
		c1.6,0,2.9,0.4,4,1.2c0.9,0.7,1.6,1.6,2.1,2.6c0.5,1,0.8,2.3,0.8,3.8v4.8h-4.8v-4.8c0-0.9-0.3-1.6-0.8-2.2
		c-0.3-0.3-0.7-0.4-1.2-0.4c-0.7,0-1.3,0.4-1.6,1.3c-0.1,0.2-0.2,0.7-0.2,1.3v20.6c0,0.9,0.3,1.6,0.8,2.2c0.2,0.2,0.6,0.4,1,0.4
		c0.9,0,1.5-0.4,1.7-1.3c0.1-0.3,0.2-0.8,0.2-1.3v-4.8h4.8v4.8c0,1.5-0.3,2.8-0.8,3.8c-0.4,1-1.1,1.8-2.1,2.6c-1,0.8-2.3,1.2-4,1.2
		c-1.7,0-3-0.4-4-1.2c-0.9-0.7-1.5-1.5-2-2.6c-0.5-1-0.8-2.3-0.8-3.8V17.9z"/>
	<path id="XMLID_10_" class="st0" d="M252.8,10.7h14.8V16h-4.8v29.6h-5.1V16h-4.8V10.7z"/>
	<path id="XMLID_12_" class="st0" d="M269.6,10.7h5.1v34.9h-5.1V10.7z"/>
	<path id="XMLID_14_" class="st0" d="M278.2,17.9c0-1.5,0.3-2.7,0.8-3.8c0.5-1.1,1.1-1.9,2-2.6c1.1-0.8,2.4-1.2,4-1.2
		c1.6,0,2.9,0.4,3.9,1.2c0.9,0.7,1.6,1.6,2.1,2.6c0.5,1,0.8,2.3,0.8,3.8v20.6c0,1.5-0.3,2.8-0.8,3.8c-0.4,1-1.1,1.8-2.1,2.6
		c-1,0.8-2.3,1.2-3.9,1.2c-1.7,0-3-0.4-4-1.2c-0.9-0.7-1.5-1.5-2-2.6c-0.5-1-0.8-2.3-0.8-3.8V17.9z M284,40.7c0.2,0.2,0.6,0.4,1,0.4
		c0.8,0,1.3-0.4,1.5-1.3c0.1-0.3,0.2-0.7,0.2-1.3V17.9c0-0.9-0.2-1.6-0.6-2.2c-0.3-0.3-0.6-0.4-1.1-0.4c-0.7,0-1.2,0.4-1.5,1.3
		c-0.1,0.3-0.2,0.8-0.2,1.3v20.6C283.3,39.4,283.6,40.1,284,40.7z"/>
	<path id="XMLID_17_" class="st0" d="M295.3,10.7h4.6l5,18.2l0.4,1.6h0.3V10.7h4.7v34.9h-4.6l-5-18.2l-0.4-1.6H300v19.8h-4.7V10.7z"
		/>
	<path id="XMLID_19_" class="st0" d="M321.1,17.9c0-1.5,0.3-2.7,0.8-3.8c0.5-1.1,1.1-1.9,2-2.6c1.1-0.8,2.4-1.2,4-1.2
		c1.6,0,2.9,0.4,4,1.2c0.9,0.7,1.6,1.6,2.1,2.6c0.5,1,0.8,2.3,0.8,3.8v4.8h-4.8v-4.8c0-0.9-0.3-1.6-0.8-2.2
		c-0.3-0.3-0.7-0.4-1.2-0.4c-0.7,0-1.3,0.4-1.6,1.3c-0.1,0.2-0.2,0.7-0.2,1.3v20.6c0,0.9,0.3,1.6,0.8,2.2c0.2,0.2,0.6,0.4,1,0.4
		c0.9,0,1.5-0.4,1.7-1.3c0.1-0.3,0.2-0.8,0.2-1.3v-4.8h4.8v4.8c0,1.5-0.3,2.8-0.8,3.8c-0.4,1-1.1,1.8-2.1,2.6c-1,0.8-2.3,1.2-4,1.2
		c-1.7,0-3-0.4-4-1.2c-0.9-0.7-1.5-1.5-2-2.6c-0.5-1-0.8-2.3-0.8-3.8V17.9z"/>
	<path id="XMLID_21_" class="st0" d="M337.8,10.7h11.7V16h-6.6v9.2h4.8v5.6h-4.8v9.6h6.6v5.3h-11.7V10.7z"/>
	<path id="XMLID_23_" class="st0" d="M352.4,10.7h4.6l5,18.2l0.4,1.6h0.3V10.7h4.7v34.9h-4.6l-5-18.2l-0.4-1.6h-0.3v19.8h-4.7V10.7z
		"/>
	<path id="XMLID_25_" class="st0" d="M369.3,10.7h14.8V16h-4.8v29.6h-5.1V16h-4.8V10.7z"/>
	<path id="XMLID_27_" class="st0" d="M386.1,10.7h11.7V16h-6.6v9.2h4.8v5.6h-4.8v9.6h6.6v5.3h-11.7V10.7z"/>
	<path id="XMLID_29_" class="st0" d="M400.7,10.7h5.1c3,0,5.2,0.8,6.6,2.5s2.1,4.2,2.1,7.6c0,1.8-0.3,3.5-0.8,4.9
		c-0.5,1.4-1.3,2.4-2.3,3.1l3.2,16.7l-4.9,0.2l-2.7-14.7h-1.4v14.7h-5.1V10.7z M408.2,25.4c0.9-0.8,1.4-2.3,1.4-4.4
		c0-2.2-0.5-3.6-1.4-4.5c-0.5-0.5-1.4-0.7-2.4-0.7v10.3C406.9,26.2,407.7,25.9,408.2,25.4z"/>
</g>
</svg>
