<?xml version="1.0" encoding="utf-8"?>
<!-- Generator: Adobe Illustrator 19.0.0, SVG Export Plug-In . SVG Version: 6.00 Build 0)  -->
<svg version="1.1" id="Layer_1" xmlns="http://www.w3.org/2000/svg" xmlns:xlink="http://www.w3.org/1999/xlink" x="0px" y="0px"
	 viewBox="0 0 387.1 56.5" style="enable-background:new 0 0 387.1 56.5;" xml:space="preserve">
<style type="text/css">
	.st0{fill:#FFFFFF;}
</style>
<g id="XMLID_3_">
	<g id="XMLID_61_">
		<polygon id="XMLID_64_" points="50,10.6 44.9,10.6 39.9,10.6 34.9,10.6 29.9,10.6 24.9,10.6 19.8,10.6 14.8,10.6 14.8,15.6 
			14.8,20.6 14.8,23.2 14.8,25.7 14.8,28.2 14.8,30.7 14.8,33.2 14.8,35.7 14.8,40.7 14.8,45.7 19.8,45.7 24.9,45.7 29.9,45.7 
			34.9,45.7 39.9,45.7 44.9,45.7 50,45.7 55,45.7 61,45.7 61,40.7 61,35.7 55,35.7 50,35.7 44.9,35.7 39.9,35.7 34.9,35.7 
			29.9,35.7 29.9,33.2 34.9,33.2 39.9,33.2 44.9,33.2 50,33.2 55,33.2 61,33.2 61,28.2 61,23.2 55,23.2 50,23.2 44.9,23.2 
			39.9,23.2 34.9,23.2 29.9,23.2 29.9,20.6 34.9,20.6 39.9,20.6 44.9,20.6 50,20.6 55,20.6 61,20.6 61,15.6 61,10.6 55,10.6 		"/>
		<polygon id="XMLID_63_" points="98.6,10.6 93.6,10.6 88.6,10.6 83.6,10.6 78.6,10.6 73.6,10.6 68.5,10.6 63.5,10.6 63.5,15.6 
			63.5,20.6 63.5,23.2 63.5,25.7 63.5,28.2 63.5,30.7 63.5,33.2 63.5,35.7 63.5,40.7 63.5,45.7 68.5,45.7 73.6,45.7 78.6,45.7 
			78.6,40.7 78.6,35.7 78.6,33.2 83.6,33.2 88.6,33.2 93.6,33.2 98.6,33.2 103.7,33.2 109.7,33.2 109.7,28.2 109.7,23.2 103.7,23.2 
			98.6,23.2 93.6,23.2 88.6,23.2 83.6,23.2 78.6,23.2 78.6,20.6 83.6,20.6 88.6,20.6 93.6,20.6 98.6,20.6 103.7,20.6 109.7,20.6 
			109.7,15.6 109.7,10.6 103.7,10.6 		"/>
		<polygon id="XMLID_62_" points="147.4,10.6 142.3,10.6 137.3,10.6 132.3,10.6 127.3,10.6 122.3,10.6 117.2,10.6 112.2,10.6 
			112.2,15.6 112.2,20.6 112.2,23.2 112.2,25.7 112.2,28.2 112.2,30.7 112.2,33.2 112.2,35.7 112.2,40.7 112.2,45.7 117.2,45.7 
			122.3,45.7 127.3,45.7 127.3,40.7 127.3,35.7 127.3,33.2 132.3,33.2 137.3,33.2 142.3,33.2 147.4,33.2 152.4,33.2 158.4,33.2 
			158.4,28.2 158.4,23.2 152.4,23.2 147.4,23.2 142.3,23.2 137.3,23.2 132.3,23.2 127.3,23.2 127.3,20.6 132.3,20.6 137.3,20.6 
			142.3,20.6 147.4,20.6 152.4,20.6 158.4,20.6 158.4,15.6 158.4,10.6 152.4,10.6 		"/>
	</g>
</g>
<g id="XMLID_2_">
	<path id="XMLID_23_" class="st0" d="M181,10.1h6.3l5.3,35.3h-5l-1-7.2h-5l-0.9,7.2h-5.1L181,10.1z M186,32.7l-1.5-11.1l-0.1-0.9
		H184l-0.1,0.9l-1.5,11.1H186z"/>
	<path id="XMLID_34_" class="st0" d="M194.7,17.4c0-1.5,0.3-2.7,0.8-3.8c0.5-1.1,1.2-2,2-2.6c1.1-0.8,2.4-1.2,4-1.2
		c1.6,0,2.9,0.4,4,1.2c0.9,0.7,1.6,1.6,2.1,2.6c0.5,1,0.8,2.3,0.8,3.8v4.9h-4.9v-4.9c0-0.9-0.3-1.6-0.8-2.2
		c-0.3-0.3-0.7-0.4-1.2-0.4c-0.7,0-1.3,0.4-1.6,1.3c-0.1,0.2-0.2,0.7-0.2,1.3v20.8c0,0.9,0.3,1.6,0.8,2.2c0.2,0.2,0.6,0.4,1,0.4
		c0.9,0,1.5-0.4,1.8-1.3c0.1-0.3,0.2-0.8,0.2-1.3v-4.9h4.9v4.9c0,1.5-0.3,2.8-0.8,3.8c-0.4,1-1.1,1.9-2.1,2.6c-1,0.8-2.3,1.2-4,1.2
		c-1.7,0-3-0.4-4-1.2c-0.9-0.7-1.5-1.5-2-2.6c-0.5-1-0.8-2.3-0.8-3.8V17.4z"/>
	<path id="XMLID_36_" class="st0" d="M209.8,10.1h15v5.3h-4.9v30h-5.2v-30h-4.9V10.1z"/>
	<path id="XMLID_38_" class="st0" d="M226.8,10.1h5.2v35.3h-5.2V10.1z"/>
	<path id="XMLID_40_" class="st0" d="M235.5,17.4c0-1.5,0.3-2.7,0.8-3.8c0.5-1.1,1.2-2,2-2.6c1.1-0.8,2.4-1.2,4-1.2
		c1.6,0,2.9,0.4,4,1.2c0.9,0.7,1.6,1.6,2.1,2.6c0.5,1,0.8,2.3,0.8,3.8v20.8c0,1.5-0.3,2.8-0.8,3.8c-0.4,1-1.1,1.9-2.1,2.6
		c-1,0.8-2.3,1.2-4,1.2c-1.7,0-3-0.4-4-1.2c-0.9-0.7-1.5-1.5-2-2.6c-0.5-1-0.8-2.3-0.8-3.8V17.4z M241.4,40.4c0.2,0.2,0.6,0.4,1,0.4
		c0.8,0,1.3-0.4,1.5-1.3c0.1-0.3,0.2-0.7,0.2-1.3V17.4c0-0.9-0.2-1.7-0.7-2.2c-0.3-0.3-0.6-0.4-1.1-0.4c-0.8,0-1.3,0.4-1.5,1.3
		c-0.1,0.3-0.2,0.8-0.2,1.3v20.8C240.7,39.1,240.9,39.8,241.4,40.4z"/>
	<path id="XMLID_43_" class="st0" d="M252.8,10.1h4.6l5,18.4l0.4,1.6h0.3v-20h4.8v35.3h-4.6l-5-18.4l-0.4-1.6h-0.3v20h-4.8V10.1z"/>
	<path id="XMLID_45_" class="st0" d="M278.8,17.4c0-1.5,0.3-2.7,0.8-3.8c0.5-1.1,1.2-2,2-2.6c1.1-0.8,2.4-1.2,4-1.2
		c1.6,0,2.9,0.4,4,1.2c0.9,0.7,1.6,1.6,2.1,2.6c0.5,1,0.8,2.3,0.8,3.8v4.9h-4.9v-4.9c0-0.9-0.3-1.6-0.8-2.2
		c-0.3-0.3-0.7-0.4-1.2-0.4c-0.7,0-1.3,0.4-1.6,1.3c-0.1,0.2-0.2,0.7-0.2,1.3v20.8c0,0.9,0.3,1.6,0.8,2.2c0.2,0.2,0.6,0.4,1,0.4
		c0.9,0,1.5-0.4,1.8-1.3c0.1-0.3,0.2-0.8,0.2-1.3v-4.9h4.9v4.9c0,1.5-0.3,2.8-0.8,3.8c-0.4,1-1.1,1.9-2.1,2.6c-1,0.8-2.3,1.2-4,1.2
		c-1.7,0-3-0.4-4-1.2c-0.9-0.7-1.5-1.5-2-2.6c-0.5-1-0.8-2.3-0.8-3.8V17.4z"/>
	<path id="XMLID_47_" class="st0" d="M295.7,10.1h11.9v5.3h-6.7v9.3h4.8v5.7h-4.8v9.7h6.7v5.3h-11.9V10.1z"/>
	<path id="XMLID_49_" class="st0" d="M310.4,10.1h4.6l5,18.4l0.4,1.6h0.3v-20h4.8v35.3h-4.6l-5-18.4l-0.4-1.6h-0.3v20h-4.8V10.1z"/>
	<path id="XMLID_51_" class="st0" d="M327.5,10.1h15v5.3h-4.9v30h-5.2v-30h-4.9V10.1z"/>
	<path id="XMLID_53_" class="st0" d="M344.5,10.1h11.9v5.3h-6.7v9.3h4.8v5.7h-4.8v9.7h6.7v5.3h-11.9V10.1z"/>
	<path id="XMLID_55_" class="st0" d="M359.2,10.1h5.2c3,0,5.3,0.8,6.7,2.5c1.4,1.7,2.1,4.2,2.1,7.6c0,1.8-0.3,3.5-0.8,4.9
		c-0.5,1.4-1.3,2.5-2.3,3.1l3.3,16.9l-4.9,0.2l-2.7-14.9h-1.4v14.9h-5.2V10.1z M366.9,25c0.9-0.8,1.4-2.3,1.4-4.5
		c0-2.2-0.5-3.7-1.4-4.5c-0.5-0.5-1.4-0.7-2.5-0.7v10.5C365.5,25.7,366.3,25.5,366.9,25z"/>
</g>
</svg>
