<?xml version="1.0" encoding="utf-8"?>
<!-- Generator: Adobe Illustrator 19.0.0, SVG Export Plug-In . SVG Version: 6.00 Build 0)  -->
<svg version="1.1" id="Layer_1" xmlns="http://www.w3.org/2000/svg" xmlns:xlink="http://www.w3.org/1999/xlink" x="0px" y="0px"
	 viewBox="-169.8 289.2 403.3 36.2" style="enable-background:new -169.8 289.2 403.3 36.2;" xml:space="preserve">
<style type="text/css">
	.st0{fill:#FFFFFF;}
</style>
<g id="XMLID_3_">
	<g id="XMLID_84_">
		<polygon id="XMLID_87_" points="-134.7,289.7 -139.7,289.7 -144.7,289.7 -149.8,289.7 -154.8,289.7 -159.8,289.7 -164.8,289.7 
			-169.8,289.7 -169.8,294.8 -169.8,299.8 -169.8,302.3 -169.8,304.8 -169.8,307.3 -169.8,309.8 -169.8,312.3 -169.8,314.8 
			-169.8,319.8 -169.8,324.9 -164.8,324.9 -159.8,324.9 -154.8,324.9 -149.8,324.9 -144.7,324.9 -139.7,324.9 -134.7,324.9 
			-129.7,324.9 -123.6,324.9 -123.6,319.8 -123.6,314.8 -129.7,314.8 -134.7,314.8 -139.7,314.8 -144.7,314.8 -149.8,314.8 
			-154.8,314.8 -154.8,312.3 -149.8,312.3 -144.7,312.3 -139.7,312.3 -134.7,312.3 -129.7,312.3 -123.6,312.3 -123.6,307.3 
			-123.6,302.3 -129.7,302.3 -134.7,302.3 -139.7,302.3 -144.7,302.3 -149.8,302.3 -154.8,302.3 -154.8,299.8 -149.8,299.8 
			-144.7,299.8 -139.7,299.8 -134.7,299.8 -129.7,299.8 -123.6,299.8 -123.6,294.8 -123.6,289.7 -129.7,289.7 		"/>
		<polygon id="XMLID_86_" points="-37.5,289.7 -42.5,289.7 -47.5,289.7 -52.5,289.7 -57.5,289.7 -62.6,289.7 -67.6,289.7 
			-72.6,289.7 -72.6,294.8 -72.6,299.8 -72.6,302.3 -72.6,304.8 -72.6,307.3 -72.6,309.8 -72.6,312.3 -72.6,314.8 -72.6,319.8 
			-72.6,324.9 -67.6,324.9 -62.6,324.9 -57.5,324.9 -57.5,319.8 -57.5,314.8 -57.5,312.3 -52.5,312.3 -47.5,312.3 -42.5,312.3 
			-37.5,312.3 -32.4,312.3 -26.4,312.3 -26.4,307.3 -26.4,302.3 -32.4,302.3 -37.5,302.3 -42.5,302.3 -47.5,302.3 -52.5,302.3 
			-57.5,302.3 -57.5,299.8 -52.5,299.8 -47.5,299.8 -42.5,299.8 -37.5,299.8 -32.4,299.8 -26.4,299.8 -26.4,294.8 -26.4,289.7 
			-32.4,289.7 		"/>
		<polygon id="XMLID_85_" points="11.3,289.7 6.2,289.7 1.2,289.7 -3.8,289.7 -8.8,289.7 -13.8,289.7 -18.9,289.7 -23.9,289.7 
			-23.9,294.8 -23.9,299.8 -23.9,302.3 -23.9,304.8 -23.9,307.3 -23.9,309.8 -23.9,312.3 -23.9,314.8 -23.9,319.8 -23.9,324.9 
			-18.9,324.9 -13.8,324.9 -8.8,324.9 -8.8,319.8 -8.8,314.8 -8.8,312.3 -3.8,312.3 1.2,312.3 6.2,312.3 11.3,312.3 16.3,312.3 
			22.3,312.3 22.3,307.3 22.3,302.3 16.3,302.3 11.3,302.3 6.2,302.3 1.2,302.3 -3.8,302.3 -8.8,302.3 -8.8,299.8 -3.8,299.8 
			1.2,299.8 6.2,299.8 11.3,299.8 16.3,299.8 22.3,299.8 22.3,294.8 22.3,289.7 16.3,289.7 		"/>
	</g>
</g>
<g id="XMLID_2_">
	<polygon id="XMLID_80_" class="st0" points="-121.1,289.7 -117.7,289.7 -117.7,291.2 -119.7,291.2 -119.7,293.9 -118.3,293.9 
		-118.3,295.5 -119.7,295.5 -119.7,298.3 -117.7,298.3 -117.7,299.8 -121.1,299.8 	"/>
	<polygon id="XMLID_79_" class="st0" points="-116.9,289.7 -115.4,289.7 -115.4,298.4 -113.4,298.4 -113.4,299.8 -116.9,299.8 	"/>
	<polygon id="XMLID_78_" class="st0" points="-112.7,289.7 -109.3,289.7 -109.3,291.2 -111.3,291.2 -111.3,293.9 -109.9,293.9 
		-109.9,295.5 -111.3,295.5 -111.3,298.3 -109.3,298.3 -109.3,299.8 -112.7,299.8 	"/>
	<path id="XMLID_77_" class="st0" d="M-104.6,296.3v1.4c0,0.4-0.1,0.8-0.2,1.1c-0.1,0.3-0.3,0.5-0.6,0.7c-0.3,0.2-0.6,0.3-1.1,0.3
		s-0.9-0.1-1.2-0.3c-0.3-0.2-0.5-0.5-0.6-0.7c-0.2-0.3-0.2-0.7-0.2-1.1v-5.9c0-0.4,0.1-0.8,0.2-1.1c0.1-0.3,0.3-0.5,0.6-0.8
		c0.3-0.2,0.7-0.3,1.2-0.3s0.9,0.1,1.1,0.3c0.3,0.2,0.5,0.5,0.6,0.8c0.2,0.3,0.2,0.7,0.2,1.1v1.4h-1.4v-1.4c0-0.3-0.1-0.5-0.2-0.6
		c-0.1-0.1-0.2-0.1-0.3-0.1c-0.3,0-0.4,0.2-0.5,0.4c0,0.1-0.1,0.2-0.1,0.4v5.9c0,0.3,0.1,0.5,0.2,0.6s0.2,0.1,0.3,0.1
		c0.3,0,0.4-0.2,0.5-0.4c0-0.1,0.1-0.2,0.1-0.4v-1.4H-104.6z"/>
	<polygon id="XMLID_76_" class="st0" points="-104.2,291.2 -104.2,289.7 -99.9,289.7 -99.9,291.2 -101.3,291.2 -101.3,299.8 
		-102.8,299.8 -102.8,291.2 	"/>
	<path id="XMLID_73_" class="st0" d="M-96.6,299.8l-0.8-4.3h-0.4v4.3h-1.5v-10.1h1.5c1.8,0,2.5,1,2.5,2.9c0,1-0.3,1.9-0.8,2.3
		l0.9,4.9H-96.6z M-97.7,294.2c0.2,0,0.5,0,0.7-0.2c0.2-0.2,0.4-0.6,0.4-1.3c0-0.7-0.2-1.1-0.4-1.3c-0.2-0.2-0.5-0.2-0.7-0.2V294.2z
		"/>
	<path id="XMLID_70_" class="st0" d="M-90.4,297.7c0,0.4-0.1,0.8-0.2,1.1c-0.1,0.3-0.3,0.5-0.6,0.7c-0.3,0.2-0.6,0.3-1.1,0.3
		s-0.9-0.1-1.2-0.3c-0.3-0.2-0.5-0.5-0.6-0.7c-0.2-0.3-0.2-0.7-0.2-1.1v-5.9c0-0.4,0.1-0.8,0.2-1.1c0.1-0.3,0.3-0.5,0.6-0.8
		c0.3-0.2,0.7-0.3,1.2-0.3s0.9,0.1,1.1,0.3c0.3,0.2,0.5,0.5,0.6,0.8c0.2,0.3,0.2,0.7,0.2,1.1V297.7z M-91.8,291.8
		c0-0.3-0.1-0.5-0.2-0.6c-0.1-0.1-0.2-0.1-0.3-0.1c-0.3,0-0.4,0.2-0.4,0.4c0,0.1-0.1,0.2-0.1,0.4v5.9c0,0.3,0.1,0.5,0.2,0.6
		s0.2,0.1,0.3,0.1c0.3,0,0.4-0.2,0.4-0.4c0-0.1,0.1-0.2,0.1-0.4V291.8z"/>
	<polygon id="XMLID_69_" class="st0" points="-87.7,294.5 -87.8,294.1 -87.9,294.1 -87.9,299.8 -89.3,299.8 -89.3,289.7 -88,289.7 
		-86.5,295 -86.4,295.4 -86.3,295.4 -86.3,289.7 -85,289.7 -85,299.8 -86.3,299.8 	"/>
	<rect id="XMLID_68_" x="-83.8" y="289.7" class="st0" width="1.5" height="10.1"/>
	<path id="XMLID_67_" class="st0" d="M-77.3,296.3v1.4c0,0.4-0.1,0.8-0.2,1.1c-0.1,0.3-0.3,0.5-0.6,0.7c-0.3,0.2-0.6,0.3-1.1,0.3
		s-0.9-0.1-1.2-0.3c-0.3-0.2-0.5-0.5-0.6-0.7c-0.2-0.3-0.2-0.7-0.2-1.1v-5.9c0-0.4,0.1-0.8,0.2-1.1c0.1-0.3,0.3-0.5,0.6-0.8
		c0.3-0.2,0.7-0.3,1.2-0.3s0.9,0.1,1.1,0.3c0.3,0.2,0.5,0.5,0.6,0.8c0.2,0.3,0.2,0.7,0.2,1.1v1.4h-1.4v-1.4c0-0.3-0.1-0.5-0.2-0.6
		c-0.1-0.1-0.2-0.1-0.3-0.1c-0.3,0-0.4,0.2-0.5,0.4c0,0.1-0.1,0.2-0.1,0.4v5.9c0,0.3,0.1,0.5,0.2,0.6s0.2,0.1,0.3,0.1
		c0.3,0,0.4-0.2,0.5-0.4c0-0.1,0.1-0.2,0.1-0.4v-1.4H-77.3z"/>
	<polygon id="XMLID_66_" class="st0" points="-117.6,303.8 -119.7,303.8 -119.7,306.4 -118.3,306.4 -118.3,307.9 -119.7,307.9 
		-119.7,312.3 -121.1,312.3 -121.1,302.2 -117.6,302.2 	"/>
	<path id="XMLID_63_" class="st0" d="M-114.3,312.3l-0.8-4.3h-0.4v4.3h-1.5v-10.1h1.5c1.8,0,2.5,1,2.5,2.9c0,1-0.3,1.9-0.8,2.3
		l0.9,4.9C-112.9,312.3-114.3,312.3-114.3,312.3z M-115.5,306.7c0.2,0,0.5,0,0.7-0.2c0.2-0.2,0.4-0.6,0.4-1.3c0-0.7-0.2-1.1-0.4-1.3
		c-0.2-0.2-0.5-0.2-0.7-0.2V306.7z"/>
	<path id="XMLID_60_" class="st0" d="M-108.1,310.2c0,0.4-0.1,0.8-0.2,1.1s-0.3,0.5-0.6,0.7c-0.3,0.2-0.6,0.3-1.1,0.3
		s-0.9-0.1-1.2-0.3c-0.3-0.2-0.5-0.5-0.6-0.7c-0.2-0.3-0.2-0.7-0.2-1.1v-5.9c0-0.4,0.1-0.8,0.2-1.1c0.1-0.3,0.3-0.5,0.6-0.8
		c0.3-0.2,0.7-0.3,1.2-0.3s0.9,0.1,1.1,0.3c0.3,0.2,0.5,0.5,0.6,0.8c0.2,0.3,0.2,0.7,0.2,1.1V310.2z M-109.5,304.3
		c0-0.3-0.1-0.5-0.2-0.6c-0.1-0.1-0.2-0.1-0.3-0.1c-0.3,0-0.4,0.2-0.4,0.4c0,0.1-0.1,0.2-0.1,0.4v5.9c0,0.3,0.1,0.5,0.2,0.6
		s0.2,0.1,0.3,0.1c0.3,0,0.4-0.2,0.4-0.4c0-0.1,0.1-0.2,0.1-0.4V304.3z"/>
	<polygon id="XMLID_59_" class="st0" points="-105.4,307.1 -105.5,306.6 -105.6,306.6 -105.6,312.3 -107,312.3 -107,302.2 
		-105.7,302.2 -104.2,307.5 -104.1,308 -104,308 -104,302.2 -102.7,302.2 -102.7,312.3 -104,312.3 	"/>
	<polygon id="XMLID_58_" class="st0" points="-102,303.8 -102,302.2 -97.7,302.2 -97.7,303.8 -99.1,303.8 -99.1,312.3 -100.6,312.3 
		-100.6,303.8 	"/>
	<rect id="XMLID_57_" x="-97.1" y="302.2" class="st0" width="1.5" height="10.1"/>
	<polygon id="XMLID_56_" class="st0" points="-94.4,302.2 -91.1,302.2 -91.1,303.8 -93,303.8 -93,306.4 -91.6,306.4 -91.6,308 
		-93,308 -93,310.8 -91.1,310.8 -91.1,312.3 -94.4,312.3 	"/>
	<path id="XMLID_53_" class="st0" d="M-87.5,312.3l-0.8-4.3h-0.4v4.3h-1.5v-10.1h1.5c1.8,0,2.5,1,2.5,2.9c0,1-0.3,1.9-0.8,2.3
		l0.9,4.9C-86.1,312.3-87.5,312.3-87.5,312.3z M-88.7,306.7c0.2,0,0.5,0,0.7-0.2c0.2-0.2,0.4-0.6,0.4-1.3c0-0.7-0.2-1.1-0.4-1.3
		c-0.2-0.2-0.5-0.2-0.7-0.2V306.7z"/>
	<polygon id="XMLID_52_" class="st0" points="-117.6,316.3 -119.7,316.3 -119.7,318.9 -118.3,318.9 -118.3,320.5 -119.7,320.5 
		-119.7,324.9 -121.1,324.9 -121.1,314.8 -117.6,314.8 	"/>
	<path id="XMLID_49_" class="st0" d="M-113.1,322.8c0,0.4-0.1,0.8-0.2,1.1s-0.3,0.5-0.6,0.7c-0.3,0.2-0.6,0.3-1.1,0.3
		s-0.9-0.1-1.2-0.3c-0.3-0.2-0.5-0.5-0.6-0.7c-0.2-0.3-0.2-0.7-0.2-1.1v-5.9c0-0.4,0.1-0.8,0.2-1.1c0.1-0.3,0.3-0.5,0.6-0.8
		c0.3-0.2,0.7-0.3,1.2-0.3s0.9,0.1,1.1,0.3c0.3,0.2,0.5,0.5,0.6,0.8c0.2,0.3,0.2,0.7,0.2,1.1V322.8z M-114.6,316.8
		c0-0.3-0.1-0.5-0.2-0.6c-0.1-0.1-0.2-0.1-0.3-0.1c-0.3,0-0.4,0.2-0.4,0.4c0,0.1-0.1,0.2-0.1,0.4v5.9c0,0.3,0.1,0.5,0.2,0.6
		s0.2,0.1,0.3,0.1c0.3,0,0.4-0.2,0.4-0.4c0-0.1,0.1-0.2,0.1-0.4V316.8z"/>
	<path id="XMLID_48_" class="st0" d="M-108.1,314.8v8c0,0.4-0.1,0.8-0.2,1.1s-0.3,0.5-0.6,0.7c-0.3,0.2-0.6,0.3-1.1,0.3
		s-0.9-0.1-1.2-0.3c-0.3-0.2-0.5-0.5-0.6-0.7c-0.2-0.3-0.2-0.7-0.2-1.1v-8h1.5v8c0,0.3,0.1,0.5,0.2,0.6s0.2,0.1,0.3,0.1
		c0.3,0,0.4-0.2,0.4-0.4c0-0.1,0.1-0.2,0.1-0.4v-8h1.4V314.8z"/>
	<polygon id="XMLID_47_" class="st0" points="-105.4,319.6 -105.5,319.1 -105.6,319.1 -105.6,324.9 -106.9,324.9 -106.9,314.8 
		-105.6,314.8 -104.2,320 -104,320.5 -104,320.5 -104,314.8 -102.6,314.8 -102.6,324.9 -103.9,324.9 	"/>
	<path id="XMLID_44_" class="st0" d="M-101.4,324.9v-10.1h1.2c1.4,0,2.1,0.3,2.5,1c0.4,0.8,0.4,2,0.4,4s0,3.3-0.3,4.1
		c-0.4,0.8-1.1,1-2.5,1h-1.1H-101.4z M-99.9,323.4c0.5,0,0.8-0.1,0.9-0.5c0.1-0.2,0.1-0.6,0.1-1.1s0-1.1,0-1.9s0-1.5,0-1.9
		c0-0.5-0.1-0.8-0.1-1.1c-0.2-0.5-0.4-0.5-0.9-0.5V323.4z"/>
	<path id="XMLID_41_" class="st0" d="M-96.7,324.9l1.5-10.1h1.8l1.6,10.1h-1.4l-0.3-2.1H-95l-0.2,2.1H-96.7z M-94.2,318v-0.3h-0.1
		L-94.2,318l-0.5,3.2h1L-94.2,318z"/>
	<polygon id="XMLID_40_" class="st0" points="-91.9,316.3 -91.9,314.8 -87.6,314.8 -87.6,316.3 -89,316.3 -89,324.9 -90.5,324.9 
		-90.5,316.3 	"/>
	<rect id="XMLID_39_" x="-86.9" y="314.8" class="st0" width="1.5" height="10.1"/>
	<path id="XMLID_36_" class="st0" d="M-80.4,322.8c0,0.4-0.1,0.8-0.2,1.1s-0.3,0.5-0.6,0.7c-0.3,0.2-0.6,0.3-1.1,0.3
		s-0.9-0.1-1.2-0.3c-0.3-0.2-0.5-0.5-0.6-0.7c-0.2-0.3-0.2-0.7-0.2-1.1v-5.9c0-0.4,0.1-0.8,0.2-1.1c0.1-0.3,0.3-0.5,0.6-0.8
		c0.3-0.2,0.7-0.3,1.2-0.3s0.9,0.1,1.1,0.3c0.3,0.2,0.5,0.5,0.6,0.8c0.2,0.3,0.2,0.7,0.2,1.1V322.8z M-81.9,316.8
		c0-0.3-0.1-0.5-0.2-0.6c-0.1-0.1-0.2-0.1-0.3-0.1c-0.3,0-0.4,0.2-0.4,0.4c0,0.1-0.1,0.2-0.1,0.4v5.9c0,0.3,0.1,0.5,0.2,0.6
		s0.2,0.1,0.3,0.1c0.3,0,0.4-0.2,0.4-0.4c0-0.1,0.1-0.2,0.1-0.4V316.8z"/>
	<polygon id="XMLID_35_" class="st0" points="-77.8,319.6 -77.9,319.1 -78,319.1 -78,324.9 -79.4,324.9 -79.4,314.8 -78.1,314.8 
		-76.6,320 -76.5,320.5 -76.4,320.5 -76.4,314.8 -75,314.8 -75,324.9 -76.4,324.9 	"/>
</g>
<g id="XMLID_1_">
	<path id="XMLID_5_" class="st0" d="M41.3,289.6h6.3l5.3,35.3h-5l-0.9-7.2h-5l-0.9,7.2H36L41.3,289.6z M46.2,312.3l-1.5-11.1
		l-0.1-0.9h-0.3l-0.1,0.9l-1.5,11.1H46.2z"/>
	<path id="XMLID_8_" class="st0" d="M55,296.9c0-1.5,0.3-2.7,0.8-3.8c0.5-1.1,1.1-1.9,2-2.6c1.1-0.8,2.4-1.2,4-1.2s2.9,0.4,4,1.2
		c0.9,0.7,1.6,1.6,2.1,2.6c0.5,1,0.8,2.3,0.8,3.8v4.8H64v-4.8c0-0.9-0.3-1.6-0.8-2.2c-0.3-0.3-0.7-0.4-1.2-0.4
		c-0.7,0-1.3,0.4-1.6,1.3c-0.1,0.2-0.2,0.7-0.2,1.3v20.8c0,0.9,0.3,1.6,0.8,2.2c0.2,0.2,0.6,0.4,1,0.4c0.9,0,1.5-0.4,1.7-1.3
		c0.1-0.3,0.2-0.8,0.2-1.3v-4.8h4.8v4.8c0,1.5-0.3,2.8-0.8,3.8c-0.4,1-1.1,1.8-2.1,2.6c-1,0.8-2.3,1.2-4,1.2s-3-0.4-4-1.2
		c-0.9-0.7-1.5-1.5-2-2.6c-0.5-1-0.8-2.3-0.8-3.8v-20.8H55z"/>
	<path id="XMLID_10_" class="st0" d="M70.1,289.6h15v5.4h-4.8v29.9H75V295h-4.8v-5.4H70.1z"/>
	<path id="XMLID_12_" class="st0" d="M87,289.6h5.2v35.3H87V289.6z"/>
	<path id="XMLID_14_" class="st0" d="M95.7,296.9c0-1.5,0.3-2.7,0.8-3.8s1.1-1.9,2-2.6c1.1-0.8,2.4-1.2,4-1.2s2.9,0.4,3.9,1.2
		c0.9,0.7,1.6,1.6,2.1,2.6c0.5,1,0.8,2.3,0.8,3.8v20.8c0,1.5-0.3,2.8-0.8,3.8c-0.4,1-1.1,1.8-2.1,2.6c-1,0.8-2.3,1.2-3.9,1.2
		c-1.7,0-3-0.4-4-1.2c-0.9-0.7-1.5-1.5-2-2.6c-0.5-1-0.8-2.3-0.8-3.8V296.9z M101.6,319.9c0.2,0.2,0.6,0.4,1,0.4
		c0.8,0,1.3-0.4,1.5-1.3c0.1-0.3,0.2-0.7,0.2-1.3v-20.8c0-0.9-0.2-1.6-0.6-2.2c-0.3-0.3-0.6-0.4-1.1-0.4c-0.7,0-1.2,0.4-1.5,1.3
		c-0.1,0.3-0.2,0.8-0.2,1.3v20.8C100.9,318.6,101.2,319.3,101.6,319.9z"/>
	<path id="XMLID_17_" class="st0" d="M113,289.6h4.6l5.1,18.4l0.4,1.6h0.3v-20h4.7v35.3h-4.6l-5.1-18.4l-0.4-1.6h-0.3v20H113V289.6z
		"/>
	<path id="XMLID_19_" class="st0" d="M139.1,296.9c0-1.5,0.3-2.7,0.8-3.8c0.5-1.1,1.1-1.9,2-2.6c1.1-0.8,2.4-1.2,4-1.2
		s2.9,0.4,4,1.2c0.9,0.7,1.6,1.6,2.1,2.6c0.5,1,0.8,2.3,0.8,3.8v4.8h-4.8v-4.8c0-0.9-0.3-1.6-0.8-2.2c-0.3-0.3-0.7-0.4-1.2-0.4
		c-0.7,0-1.3,0.4-1.6,1.3c-0.1,0.2-0.2,0.7-0.2,1.3v20.8c0,0.9,0.3,1.6,0.8,2.2c0.2,0.2,0.6,0.4,1,0.4c0.9,0,1.5-0.4,1.7-1.3
		c0.1-0.3,0.2-0.8,0.2-1.3v-4.8h4.8v4.8c0,1.5-0.3,2.8-0.8,3.8c-0.4,1-1.1,1.8-2.1,2.6c-1,0.8-2.3,1.2-4,1.2c-1.7,0-3-0.4-4-1.2
		c-0.9-0.7-1.5-1.5-2-2.6c-0.5-1-0.8-2.3-0.8-3.8v-20.8H139.1z"/>
	<path id="XMLID_21_" class="st0" d="M155.9,289.6h11.8v5.4h-6.7v9.3h4.8v5.7h-4.8v9.7h6.7v5.4h-11.8V289.6z"/>
	<path id="XMLID_23_" class="st0" d="M170.7,289.6h4.6l5.1,18.4l0.4,1.6h0.3v-20h4.7v35.3h-4.6l-5.1-18.4l-0.4-1.6h-0.3v20h-4.7
		V289.6z"/>
	<path id="XMLID_25_" class="st0" d="M187.8,289.6h15v5.4h-4.8v29.9h-5.2V295h-4.8v-5.4H187.8z"/>
	<path id="XMLID_27_" class="st0" d="M204.7,289.6h11.8v5.4h-6.7v9.3h4.8v5.7h-4.8v9.7h6.7v5.4h-11.8V289.6z"/>
	<path id="XMLID_29_" class="st0" d="M219.5,289.6h5.2c3,0,5.3,0.8,6.7,2.5c1.4,1.7,2.1,4.2,2.1,7.7c0,1.8-0.3,3.5-0.8,5
		c-0.5,1.4-1.3,2.4-2.3,3.1l3.2,16.9l-5,0.2l-2.7-14.9h-1.4V325h-5.2v-35.4H219.5z M227.1,304.5c0.9-0.8,1.4-2.3,1.4-4.4
		c0-2.2-0.5-3.6-1.4-4.5c-0.5-0.5-1.4-0.7-2.4-0.7v10.4C225.8,305.3,226.6,305,227.1,304.5z"/>
</g>
</svg>
