<?xml version="1.0" encoding="utf-8"?>
<!-- Generator: Adobe Illustrator 19.0.0, SVG Export Plug-In . SVG Version: 6.00 Build 0)  -->
<svg version="1.1" id="Layer_1" xmlns="http://www.w3.org/2000/svg" xmlns:xlink="http://www.w3.org/1999/xlink" x="0px" y="0px"
	 viewBox="194 50.8 603.4 116.2" style="enable-background:new 194 50.8 603.4 116.2;" xml:space="preserve">
<style type="text/css">
	.st0{fill:#2D2D2D;}
</style>
<polygon class="st0" points="194,53.8 194,164.1 339.2,164.1 339.2,132.5 241.3,132.5 241.3,124.6 339.2,124.6 339.2,93.1
	241.3,93.1 241.3,85.2 339.2,85.2 339.2,53.8 "/>
<polygon class="st0" points="499.1,53.8 499.1,164.1 546.4,164.1 546.4,124.6 644.3,124.6 644.3,93.1 546.4,93.1 546.4,85.2
	644.3,85.2 644.3,53.8 "/>
<polygon class="st0" points="652.2,53.8 652.2,164.1 699.5,164.1 699.5,124.6 797.4,124.6 797.4,93.1 699.5,93.1 699.5,85.2
	797.4,85.2 797.4,53.8 "/>
<g>
	<path class="st0" d="M347.1,53.8h10.6v4.8h-6v8.3h4.3V72h-4.3v8.7h6v4.8h-10.6V53.8z"/>
	<path class="st0" d="M360.2,53.8h4.6V81h6.1v4.3h-10.8L360.2,53.8L360.2,53.8z"/>
	<path class="st0" d="M373.4,53.8H384v4.8h-6v8.3h4.3V72H378v8.7h6v4.8h-10.6V53.8z"/>
	<path class="st0" d="M398.8,74.5v4.3c0,1.3-0.3,2.4-0.8,3.4c-0.4,0.9-1,1.7-1.8,2.3c-0.9,0.7-2,1.1-3.6,1.1c-1.5,0-2.7-0.4-3.6-1.1
		c-0.9-0.6-1.4-1.5-1.8-2.3c-0.5-1-0.7-2.1-0.8-3.4V60.3c0-1.2,0.3-2.4,0.8-3.4c0.4-0.9,0.9-1.7,1.8-2.4c0.9-0.6,2.1-1.1,3.6-1.1
		s2.7,0.4,3.6,1.1c0.9,0.6,1.5,1.5,1.8,2.4c0.5,1,0.7,2.1,0.8,3.4v4.3h-4.3v-4.3c0-0.9-0.2-1.5-0.7-2c-0.2-0.2-0.6-0.3-1.1-0.3
		c-0.8,0-1.2,0.6-1.4,1.2c-0.1,0.3-0.2,0.7-0.2,1.2V79c0,0.9,0.3,1.5,0.7,2c0.2,0.2,0.5,0.3,0.9,0.3c1,0,1.4-0.5,1.6-1.2
		c0.1-0.3,0.2-0.7,0.2-1.2v-4.3L398.8,74.5L398.8,74.5z"/>
	<path class="st0" d="M400.2,58.6v-4.8h13.4v4.8h-4.4v26.8h-4.6V58.6L400.2,58.6L400.2,58.6z"/>
	<path class="st0" d="M423.9,85.4l-2.4-13.3h-1.2v13.3h-4.6V53.8h4.6c5.5,0,7.9,3.1,7.9,9.1c0,3.1-0.8,6-2.6,7.2l3,15.3H423.9z
		 M420.3,67.6c0.6,0,1.5-0.1,2.2-0.7s1.2-1.8,1.2-4c0-2.2-0.6-3.4-1.2-4c-0.7-0.6-1.5-0.6-2.2-0.6V67.6z"/>
	<path class="st0" d="M443.4,78.9c0,1.3-0.3,2.4-0.8,3.4c-0.4,0.9-1,1.7-1.8,2.3c-0.9,0.7-2,1.1-3.6,1.1c-1.5,0-2.7-0.4-3.6-1.1
		c-0.9-0.6-1.4-1.5-1.8-2.3c-0.5-1-0.7-2.1-0.8-3.4V60.3c0-1.2,0.3-2.4,0.8-3.4c0.4-0.9,0.9-1.7,1.8-2.4c0.9-0.6,2.1-1.1,3.6-1.1
		s2.7,0.4,3.6,1.1c0.9,0.6,1.5,1.5,1.8,2.4c0.5,1,0.7,2.1,0.8,3.4V78.9z M438.8,60.2c0-0.9-0.2-1.5-0.6-2c-0.2-0.2-0.6-0.3-0.9-0.3
		c-0.8,0-1.2,0.6-1.4,1.2c-0.1,0.3-0.2,0.7-0.2,1.2v18.6c0,0.9,0.2,1.5,0.6,2c0.2,0.2,0.5,0.3,0.9,0.3c0.8,0,1.2-0.5,1.4-1.2
		c0.1-0.3,0.2-0.7,0.2-1.2V60.2z"/>
	<path class="st0" d="M451.7,68.9l-0.4-1.5H451v17.9h-4.3V53.8h4.1l4.5,16.4l0.4,1.5h0.3V53.8h4.3v31.6h-4.1L451.7,68.9z"/>
	<path class="st0" d="M463.9,53.8h4.6v31.6h-4.6V53.8z"/>
	<path class="st0" d="M484.3,74.5v4.3c0,1.3-0.3,2.4-0.8,3.4c-0.4,0.9-1,1.7-1.8,2.3c-0.9,0.7-2,1.1-3.6,1.1c-1.5,0-2.7-0.4-3.6-1.1
		c-0.9-0.6-1.4-1.5-1.8-2.3c-0.5-1-0.7-2.1-0.8-3.4V60.3c0-1.2,0.3-2.4,0.8-3.4c0.4-0.9,0.9-1.7,1.8-2.4c0.9-0.6,2.1-1.1,3.6-1.1
		s2.7,0.4,3.6,1.1c0.9,0.6,1.5,1.5,1.8,2.4c0.5,1,0.7,2.1,0.8,3.4v4.3H480v-4.3c0-0.9-0.2-1.5-0.7-2c-0.2-0.2-0.6-0.3-1.1-0.3
		c-0.8,0-1.2,0.6-1.4,1.2c-0.1,0.3-0.2,0.7-0.2,1.2V79c0,0.9,0.3,1.5,0.7,2c0.2,0.2,0.5,0.3,0.9,0.3c1,0,1.4-0.5,1.6-1.2
		c0.1-0.3,0.2-0.7,0.2-1.2v-4.3L484.3,74.5L484.3,74.5z"/>
	<path class="st0" d="M357.7,98h-6v8.3h4.3v4.8h-4.3v13.7h-4.6V93.2h10.6V98z"/>
	<path class="st0" d="M368.5,124.8l-2.4-13.3h-1.2v13.3h-4.6V93.2h4.6c5.5,0,7.9,3.1,7.9,9.1c0,3.1-0.8,6-2.6,7.2l3,15.3H368.5z
		 M364.9,107.1c0.6,0,1.5-0.1,2.2-0.7c0.7-0.6,1.2-1.8,1.2-4s-0.6-3.4-1.2-4c-0.7-0.6-1.5-0.6-2.2-0.6V107.1z"/>
	<path class="st0" d="M388,118.2c0,1.3-0.3,2.4-0.8,3.4c-0.4,0.9-1,1.7-1.8,2.3c-0.9,0.7-2,1.1-3.6,1.1c-1.5,0-2.7-0.4-3.6-1.1
		c-0.9-0.6-1.4-1.5-1.8-2.3c-0.5-1-0.7-2.1-0.8-3.4V99.6c0-1.2,0.3-2.4,0.8-3.4c0.4-0.9,0.9-1.7,1.8-2.4c0.9-0.6,2.1-1.1,3.6-1.1
		s2.7,0.4,3.6,1.1c0.9,0.6,1.5,1.5,1.8,2.4c0.5,1,0.7,2.1,0.8,3.4V118.2z M383.4,99.6c0-0.9-0.2-1.5-0.6-2c-0.2-0.2-0.6-0.3-0.9-0.3
		c-0.8,0-1.2,0.6-1.4,1.2c-0.1,0.3-0.2,0.7-0.2,1.2v18.6c0,0.9,0.2,1.5,0.6,2c0.2,0.2,0.5,0.3,0.9,0.3c0.8,0,1.2-0.5,1.4-1.2
		c0.1-0.3,0.2-0.7,0.2-1.2V99.6z"/>
	<path class="st0" d="M396.3,108.2l-0.4-1.5h-0.3v17.9h-4.3V93.1h4.1l4.5,16.4l0.4,1.5h0.3V93.1h4.3v31.6h-4.1L396.3,108.2z"/>
	<path class="st0" d="M406.9,98v-4.8h13.4V98h-4.4v26.8h-4.6V98H406.9z"/>
	<path class="st0" d="M422.3,93.1h4.6v31.6h-4.6V93.1z"/>
	<path class="st0" d="M430.6,93.1h10.6v4.8h-6v8.3h4.3v5.1h-4.3v8.7h6v4.8h-10.6V93.1z"/>
	<path class="st0" d="M452.3,124.8l-2.4-13.3h-1.2v13.3H444V93.2h4.6c5.5,0,7.9,3.1,7.9,9.1c0,3.1-0.8,6-2.6,7.2l3,15.3H452.3z
		 M448.7,107.1c0.6,0,1.5-0.1,2.2-0.7c0.7-0.6,1.2-1.8,1.2-4s-0.6-3.4-1.2-4c-0.7-0.6-1.5-0.6-2.2-0.6V107.1z"/>
	<path class="st0" d="M357.7,137.4h-6v8.3h4.3v4.8h-4.3v13.7h-4.6v-31.6h10.6V137.4z"/>
	<path class="st0" d="M372.3,157.6c0,1.3-0.3,2.4-0.8,3.4c-0.4,0.9-1,1.7-1.8,2.3c-0.9,0.7-2,1.1-3.6,1.1c-1.5,0-2.7-0.4-3.6-1.1
		c-0.9-0.6-1.4-1.5-1.8-2.3c-0.5-1-0.7-2.1-0.8-3.4V139c0-1.2,0.3-2.4,0.8-3.4c0.4-0.9,0.9-1.7,1.8-2.4c0.9-0.6,2.1-1.1,3.6-1.1
		s2.7,0.4,3.6,1.1c0.9,0.6,1.5,1.5,1.8,2.4c0.5,1,0.7,2.1,0.8,3.4V157.6z M367.7,139c0-0.9-0.2-1.5-0.6-2c-0.2-0.2-0.6-0.3-0.9-0.3
		c-0.8,0-1.2,0.6-1.4,1.2c-0.1,0.3-0.2,0.7-0.2,1.2v18.6c0,0.9,0.2,1.5,0.6,2c0.2,0.2,0.5,0.3,0.9,0.3c0.8,0,1.2-0.5,1.4-1.2
		c0.1-0.3,0.2-0.7,0.2-1.2V139z"/>
	<path class="st0" d="M388,132.5v25.1c0,1.3-0.3,2.4-0.8,3.4c-0.4,0.9-1,1.7-1.8,2.3c-0.9,0.7-2,1.1-3.6,1.1c-1.5,0-2.7-0.4-3.6-1.1
		c-0.9-0.6-1.4-1.5-1.8-2.3c-0.5-1-0.7-2.1-0.8-3.4v-25.1h4.6v25.1c0,0.9,0.2,1.5,0.6,2c0.2,0.2,0.5,0.3,0.9,0.3
		c0.8,0,1.2-0.5,1.4-1.2c0.1-0.3,0.2-0.7,0.2-1.2v-25L388,132.5L388,132.5z"/>
	<path class="st0" d="M396.5,147.6l-0.4-1.5h-0.3v18h-4.3v-31.6h4.1l4.5,16.4l0.4,1.5h0.3v-17.9h4.3v31.6H401L396.5,147.6z"/>
	<path class="st0" d="M408.8,164.1v-31.6h3.7c4.3,0,6.6,0.9,7.9,3.3c1.2,2.4,1.4,6.4,1.4,12.5c0,6.2-0.2,10.1-1.4,12.5
		c-1.2,2.4-3.6,3.3-7.9,3.3C412.5,164.1,408.8,164.1,408.8,164.1z M413.4,159.5c1.6,0,2.5-0.2,3-1.7c0.2-0.7,0.4-1.8,0.4-3.4
		c0-1.5,0-3.5,0-6.1s0-4.6,0-6.1s-0.2-2.6-0.4-3.4c-0.5-1.5-1.4-1.7-3-1.7V159.5z"/>
	<path class="st0" d="M423.3,164.1l4.8-31.6h5.7l4.8,31.6H434l-0.9-6.4h-4.5l-0.9,6.4H423.3z M431.2,142.9l-0.1-0.8h-0.3l-0.1,0.8
		l-1.3,10h3.2L431.2,142.9z"/>
	<path class="st0" d="M437.9,137.4v-4.8h13.4v4.8h-4.4v26.8h-4.6v-26.8H437.9z"/>
	<path class="st0" d="M454,132.5h4.6v31.6H454V132.5z"/>
	<path class="st0" d="M474.3,157.6c0,1.3-0.3,2.4-0.8,3.4c-0.4,0.9-1,1.7-1.8,2.3c-0.9,0.7-2,1.1-3.6,1.1c-1.5,0-2.7-0.4-3.6-1.1
		c-0.9-0.6-1.4-1.5-1.8-2.3c-0.5-1-0.7-2.1-0.8-3.4V139c0-1.2,0.3-2.4,0.8-3.4c0.4-0.9,0.9-1.7,1.8-2.4c0.9-0.6,2.1-1.1,3.6-1.1
		s2.7,0.4,3.6,1.1c0.9,0.6,1.5,1.5,1.8,2.4c0.5,1,0.7,2.1,0.8,3.4V157.6z M469.7,139c0-0.9-0.2-1.5-0.6-2c-0.2-0.2-0.6-0.3-0.9-0.3
		c-0.8,0-1.2,0.6-1.4,1.2c-0.1,0.3-0.2,0.7-0.2,1.2v18.6c0,0.9,0.2,1.5,0.6,2c0.2,0.2,0.5,0.3,0.9,0.3c0.8,0,1.2-0.5,1.4-1.2
		c0.1-0.3,0.2-0.7,0.2-1.2V139z"/>
	<path class="st0" d="M482.6,147.6l-0.4-1.5h-0.3v18h-4.3v-31.6h4.1l4.5,16.4l0.4,1.5h0.3v-17.9h4.3v31.6h-4.1L482.6,147.6z"/>
</g>
</svg>
