<?xml version="1.0" encoding="utf-8"?>
<!-- Generator: Adobe Illustrator 19.0.0, SVG Export Plug-In . SVG Version: 6.00 Build 0)  -->
<svg version="1.1" id="Layer_1" xmlns="http://www.w3.org/2000/svg" xmlns:xlink="http://www.w3.org/1999/xlink" x="0px" y="0px"
	 viewBox="-297 242.8 603.4 116.2" style="enable-background:new -297 242.8 603.4 116.2;" xml:space="preserve">
<style type="text/css">
	.st0{fill:#FFFFFF;}
</style>
<polygon points="-297,245 -297,355.4 -151.8,355.4 -151.8,323.8 -249.7,323.8 -249.7,315.9 -151.8,315.9 -151.8,284.4 -249.7,284.4
	-249.7,276.5 -151.8,276.5 -151.8,245 "/>
<polygon points="8.1,245 8.1,355.4 55.4,355.4 55.4,315.9 153.3,315.9 153.3,284.4 55.4,284.4 55.4,276.5 153.3,276.5 153.3,245 "/>
<polygon points="161.2,245 161.2,355.4 208.5,355.4 208.5,315.9 306.4,315.9 306.4,284.4 208.5,284.4 208.5,276.5 306.4,276.5
	306.4,245 "/>
<g>
	<path class="st0" d="M-143.9,245h10.6v4.8h-6v8.3h4.3v5.1h-4.3v8.7h6v4.8h-10.6V245z"/>
	<path class="st0" d="M-130.8,245h4.6v27.3h6.1v4.3h-10.8L-130.8,245L-130.8,245z"/>
	<path class="st0" d="M-117.6,245h10.6v4.8h-6v8.3h4.3v5.1h-4.3v8.7h6v4.8h-10.6V245z"/>
	<path class="st0" d="M-92.2,265.7v4.3c0,1.3-0.3,2.4-0.8,3.4c-0.4,0.9-1,1.7-1.8,2.3c-0.9,0.7-2,1.1-3.6,1.1
		c-1.5,0-2.7-0.4-3.6-1.1c-0.9-0.6-1.4-1.5-1.8-2.3c-0.5-1-0.7-2.1-0.8-3.4v-18.5c0-1.2,0.3-2.4,0.8-3.4c0.4-0.9,0.9-1.7,1.8-2.4
		c0.9-0.6,2.1-1.1,3.6-1.1s2.7,0.4,3.6,1.1c0.9,0.6,1.5,1.5,1.8,2.4c0.5,1,0.7,2.1,0.8,3.4v4.3h-4.3v-4.3c0-0.9-0.2-1.5-0.7-2
		c-0.2-0.2-0.6-0.3-1.1-0.3c-0.8,0-1.2,0.6-1.4,1.2c-0.1,0.3-0.2,0.7-0.2,1.2v18.6c0,0.9,0.3,1.5,0.7,2c0.2,0.2,0.5,0.3,0.9,0.3
		c1,0,1.4-0.5,1.6-1.2c0.1-0.3,0.2-0.7,0.2-1.2v-4.3h4.3V265.7z"/>
	<path class="st0" d="M-90.8,249.8V245h13.4v4.8h-4.4v26.8h-4.6v-26.8H-90.8z"/>
	<path class="st0" d="M-67.1,276.6l-2.4-13.3h-1.2v13.3h-4.6V245h4.6c5.5,0,7.9,3.1,7.9,9.1c0,3.1-0.8,6-2.6,7.2l3,15.3H-67.1z
		 M-70.7,258.9c0.6,0,1.5-0.1,2.2-0.7s1.2-1.8,1.2-4c0-2.2-0.6-3.4-1.2-4c-0.7-0.6-1.5-0.6-2.2-0.6V258.9z"/>
	<path class="st0" d="M-47.6,270.1c0,1.3-0.3,2.4-0.8,3.4c-0.4,0.9-1,1.7-1.8,2.3c-0.9,0.7-2,1.1-3.6,1.1c-1.5,0-2.7-0.4-3.6-1.1
		c-0.9-0.6-1.4-1.5-1.8-2.3c-0.5-1-0.7-2.1-0.8-3.4v-18.6c0-1.2,0.3-2.4,0.8-3.4c0.4-0.9,0.9-1.7,1.8-2.4c0.9-0.6,2.1-1.1,3.6-1.1
		s2.7,0.4,3.6,1.1c0.9,0.6,1.5,1.5,1.8,2.4c0.5,1,0.7,2.1,0.8,3.4V270.1z M-52.2,251.5c0-0.9-0.2-1.5-0.6-2
		c-0.2-0.2-0.6-0.3-0.9-0.3c-0.8,0-1.2,0.6-1.4,1.2c-0.1,0.3-0.2,0.7-0.2,1.2v18.6c0,0.9,0.2,1.5,0.6,2c0.2,0.2,0.5,0.3,0.9,0.3
		c0.8,0,1.2-0.5,1.4-1.2c0.1-0.3,0.2-0.7,0.2-1.2V251.5z"/>
	<path class="st0" d="M-39.3,260.1l-0.4-1.5H-40v17.9h-4.3V245h4.1l4.5,16.4l0.4,1.5h0.3V245h4.3v31.6h-4.1L-39.3,260.1z"/>
	<path class="st0" d="M-27.1,245h4.6v31.6h-4.6V245z"/>
	<path class="st0" d="M-6.7,265.7v4.3c0,1.3-0.3,2.4-0.8,3.4c-0.4,0.9-1,1.7-1.8,2.3c-0.9,0.7-2,1.1-3.6,1.1c-1.5,0-2.7-0.4-3.6-1.1
		c-0.9-0.6-1.4-1.5-1.8-2.3c-0.5-1-0.7-2.1-0.8-3.4v-18.5c0-1.2,0.3-2.4,0.8-3.4c0.4-0.9,0.9-1.7,1.8-2.4c0.9-0.6,2.1-1.1,3.6-1.1
		s2.7,0.4,3.6,1.1c0.9,0.6,1.5,1.5,1.8,2.4c0.5,1,0.7,2.1,0.8,3.4v4.3H-11v-4.3c0-0.9-0.2-1.5-0.7-2c-0.2-0.2-0.6-0.3-1.1-0.3
		c-0.8,0-1.2,0.6-1.4,1.2c-0.1,0.3-0.2,0.7-0.2,1.2v18.6c0,0.9,0.3,1.5,0.7,2c0.2,0.2,0.5,0.3,0.9,0.3c1,0,1.4-0.5,1.6-1.2
		c0.1-0.3,0.2-0.7,0.2-1.2v-4.3h4.3V265.7z"/>
	<path class="st0" d="M-133.3,289.2h-6v8.3h4.3v4.8h-4.3V316h-4.6v-31.6h10.6V289.2z"/>
	<path class="st0" d="M-122.5,316l-2.4-13.3h-1.2V316h-4.6v-31.6h4.6c5.5,0,7.9,3.1,7.9,9.1c0,3.1-0.8,6-2.6,7.2l3,15.3H-122.5z
		 M-126.1,298.4c0.6,0,1.5-0.1,2.2-0.7s1.2-1.8,1.2-4c0-2.2-0.6-3.4-1.2-4c-0.7-0.6-1.5-0.6-2.2-0.6V298.4z"/>
	<path class="st0" d="M-103,309.5c0,1.3-0.3,2.4-0.8,3.4c-0.4,0.9-1,1.7-1.8,2.3c-0.9,0.7-2,1.1-3.6,1.1c-1.5,0-2.7-0.4-3.6-1.1
		c-0.9-0.6-1.4-1.5-1.8-2.3c-0.5-1-0.7-2.1-0.8-3.4v-18.6c0-1.2,0.3-2.4,0.8-3.4c0.4-0.9,0.9-1.7,1.8-2.4c0.9-0.6,2.1-1.1,3.6-1.1
		s2.7,0.4,3.6,1.1c0.9,0.6,1.5,1.5,1.8,2.4c0.5,1,0.7,2.1,0.8,3.4V309.5z M-107.6,290.9c0-0.9-0.2-1.5-0.6-2
		c-0.2-0.2-0.6-0.3-0.9-0.3c-0.8,0-1.2,0.6-1.4,1.2c-0.1,0.3-0.2,0.7-0.2,1.2v18.6c0,0.9,0.2,1.5,0.6,2c0.2,0.2,0.5,0.3,0.9,0.3
		c0.8,0,1.2-0.5,1.4-1.2c0.1-0.3,0.2-0.7,0.2-1.2V290.9z"/>
	<path class="st0" d="M-94.7,299.5l-0.4-1.5h-0.3v17.9h-4.3v-31.5h4.1l4.5,16.4l0.4,1.5h0.3v-17.9h4.3V316h-4.1L-94.7,299.5z"/>
	<path class="st0" d="M-84.1,289.2v-4.8h13.4v4.8h-4.4V316h-4.6v-26.8H-84.1z"/>
	<path class="st0" d="M-68.7,284.4h4.6V316h-4.6V284.4z"/>
	<path class="st0" d="M-60.4,284.4h10.6v4.8h-6v8.3h4.3v5.1h-4.3v8.7h6v4.8h-10.6V284.4z"/>
	<path class="st0" d="M-38.7,316l-2.4-13.3h-1.2V316H-47v-31.6h4.6c5.5,0,7.9,3.1,7.9,9.1c0,3.1-0.8,6-2.6,7.2l3,15.3H-38.7z
		 M-42.3,298.4c0.6,0,1.5-0.1,2.2-0.7c0.7-0.6,1.2-1.8,1.2-4c0-2.2-0.6-3.4-1.2-4c-0.7-0.6-1.5-0.6-2.2-0.6V298.4z"/>
	<path class="st0" d="M-133.3,328.6h-6v8.3h4.3v4.8h-4.3v13.7h-4.6v-31.6h10.6V328.6z"/>
	<path class="st0" d="M-118.7,348.9c0,1.3-0.3,2.4-0.8,3.4c-0.4,0.9-1,1.7-1.8,2.3c-0.9,0.7-2,1.1-3.6,1.1c-1.5,0-2.7-0.4-3.6-1.1
		c-0.9-0.6-1.4-1.5-1.8-2.3c-0.5-1-0.7-2.1-0.8-3.4v-18.6c0-1.2,0.3-2.4,0.8-3.4c0.4-0.9,0.9-1.7,1.8-2.4c0.9-0.6,2.1-1.1,3.6-1.1
		s2.7,0.4,3.6,1.1c0.9,0.6,1.5,1.5,1.8,2.4c0.5,1,0.7,2.1,0.8,3.4V348.9z M-123.3,330.3c0-0.9-0.2-1.5-0.6-2
		c-0.2-0.2-0.6-0.3-0.9-0.3c-0.8,0-1.2,0.6-1.4,1.2c-0.1,0.3-0.2,0.7-0.2,1.2V349c0,0.9,0.2,1.5,0.6,2c0.2,0.2,0.5,0.3,0.9,0.3
		c0.8,0,1.2-0.5,1.4-1.2c0.1-0.3,0.2-0.7,0.2-1.2V330.3z"/>
	<path class="st0" d="M-103,323.8v25.1c0,1.3-0.3,2.4-0.8,3.4c-0.4,0.9-1,1.7-1.8,2.3c-0.9,0.7-2,1.1-3.6,1.1
		c-1.5,0-2.7-0.4-3.6-1.1c-0.9-0.6-1.4-1.5-1.8-2.3c-0.5-1-0.7-2.1-0.8-3.4v-25.1h4.6v25.1c0,0.9,0.2,1.5,0.6,2
		c0.2,0.2,0.5,0.3,0.9,0.3c0.8,0,1.2-0.5,1.4-1.2c0.1-0.3,0.2-0.7,0.2-1.2v-25H-103z"/>
	<path class="st0" d="M-94.5,338.9l-0.4-1.5h-0.3v18h-4.3v-31.6h4.1l4.5,16.4l0.4,1.5h0.3v-17.9h4.3v31.6H-90L-94.5,338.9z"/>
	<path class="st0" d="M-82.2,355.4v-31.6h3.7c4.3,0,6.6,0.9,7.9,3.3c1.2,2.4,1.4,6.4,1.4,12.5c0,6.2-0.2,10.1-1.4,12.5
		c-1.2,2.4-3.6,3.3-7.9,3.3C-78.5,355.4-82.2,355.4-82.2,355.4z M-77.6,350.8c1.6,0,2.5-0.2,3-1.7c0.2-0.7,0.4-1.8,0.4-3.4
		c0-1.5,0-3.5,0-6.1c0-2.6,0-4.6,0-6.1s-0.2-2.6-0.4-3.4c-0.5-1.5-1.4-1.7-3-1.7V350.8z"/>
	<path class="st0" d="M-67.7,355.4l4.8-31.6h5.7l4.8,31.6H-57l-0.9-6.4h-4.5l-0.9,6.4H-67.7z M-59.8,334.1l-0.1-0.8h-0.3l-0.1,0.8
		l-1.3,10h3.2L-59.8,334.1z"/>
	<path class="st0" d="M-53.1,328.6v-4.8h13.4v4.8h-4.4v26.8h-4.6v-26.8H-53.1z"/>
	<path class="st0" d="M-37,323.8h4.6v31.6H-37V323.8z"/>
	<path class="st0" d="M-16.7,348.9c0,1.3-0.3,2.4-0.8,3.4c-0.4,0.9-1,1.7-1.8,2.3c-0.9,0.7-2,1.1-3.6,1.1c-1.5,0-2.7-0.4-3.6-1.1
		c-0.9-0.6-1.4-1.5-1.8-2.3c-0.5-1-0.7-2.1-0.8-3.4v-18.6c0-1.2,0.3-2.4,0.8-3.4c0.4-0.9,0.9-1.7,1.8-2.4c0.9-0.6,2.1-1.1,3.6-1.1
		s2.7,0.4,3.6,1.1c0.9,0.6,1.5,1.5,1.8,2.4c0.5,1,0.7,2.1,0.8,3.4V348.9z M-21.3,330.3c0-0.9-0.2-1.5-0.6-2
		c-0.2-0.2-0.6-0.3-0.9-0.3c-0.8,0-1.2,0.6-1.4,1.2c-0.1,0.3-0.2,0.7-0.2,1.2V349c0,0.9,0.2,1.5,0.6,2c0.2,0.2,0.5,0.3,0.9,0.3
		c0.8,0,1.2-0.5,1.4-1.2c0.1-0.3,0.2-0.7,0.2-1.2V330.3z"/>
	<path class="st0" d="M-8.4,338.9l-0.4-1.5h-0.3v18h-4.3v-31.6h4.1l4.5,16.4l0.4,1.5h0.3v-17.9h4.3v31.6h-4.1L-8.4,338.9z"/>
</g>
</svg>
