<?xml version="1.0" encoding="utf-8"?>
<!-- Generator: Adobe Illustrator 19.0.0, SVG Export Plug-In . SVG Version: 6.00 Build 0)  -->
<svg version="1.1" id="Layer_1" xmlns="http://www.w3.org/2000/svg" xmlns:xlink="http://www.w3.org/1999/xlink" x="0px" y="0px"
	 viewBox="148 28.6 512.7 160.4" style="enable-background:new 148 28.6 512.7 160.4;" xml:space="preserve">
<style type="text/css">
	.st0{fill:#FFFFFF;}
</style>
<g>
	<polygon class="st0" points="148,46.2 148,171 312.2,171 312.2,135.3 201.5,135.3 201.5,126.5 312.2,126.5 312.2,90.8 201.5,90.8 
		201.5,81.8 312.2,81.8 312.2,46.2 	"/>
	<polygon class="st0" points="321.1,46.2 321.1,171 374.6,171 374.6,126.5 485.2,126.5 485.2,90.8 374.6,90.8 374.6,81.8 
		485.2,81.8 485.2,46.2 	"/>
	<polygon class="st0" points="494.2,46.2 494.2,171 547.7,171 547.7,126.5 658.4,126.5 658.4,90.8 547.7,90.8 547.7,81.8 
		658.4,81.8 658.4,46.2 	"/>
</g>
</svg>
