<?xml version="1.0" encoding="utf-8"?>
<!-- Generator: Adobe Illustrator 19.0.0, SVG Export Plug-In . SVG Version: 6.00 Build 0)  -->
<svg version="1.1" id="Layer_1" xmlns="http://www.w3.org/2000/svg" xmlns:xlink="http://www.w3.org/1999/xlink" x="0px" y="0px"
	 viewBox="0 0 72 72" style="enable-background:new 0 0 72 72;" xml:space="preserve">
<g>
	<path d="M0,0v72h72V0H0z M63,41.4c-1.4,1.5-3.4,2.3-5.4,2.3H46.7c-3.6,0-6.6-2.5-7.5-5.8h-6.6c-0.9,3.3-3.9,5.8-7.4,5.8H14.5
		c-4.2,0-7.7-3.5-7.7-7.7s3.5-7.7,7.7-7.7h10.8c3.6,0,6.6,2.5,7.5,5.8h6.6c0.8-3.3,3.9-5.8,7.5-5.8h10.8c4.2,0,7.7,3.5,7.7,7.7
		C65.3,38,64.4,39.9,63,41.4z"/>
	<path d="M24.7,34.1h4c-0.7-1.2-2-2.1-3.5-2.1H14.4c-2.2,0-4,1.8-4,3.9s1.8,3.9,4,3.9h10.8c1.5,0,2.8-0.9,3.5-2.1h-4
		c-1,0-1.9-0.8-1.9-1.9S23.6,34.1,24.7,34.1z"/>
	<path d="M57.4,32c0.2,0.1-10.7,0.1-10.7,0.1c-1.5,0-2.8,0.8-3.5,2.1h3.5c1,0,1.9,0.8,1.9,1.9s-0.8,1.9-1.9,1.9h-3.5
		c0.7,1.2,2,2.1,3.5,2.1h10.8c1,0,2.1-0.5,2.8-1.2s1.1-1.7,1.1-2.8C61.4,33.8,59.7,32,57.4,32z"/>
</g>
</svg>
