<?xml version="1.0" encoding="utf-8"?>
<!-- Generator: Adobe Illustrator 19.0.0, SVG Export Plug-In . SVG Version: 6.00 Build 0)  -->
<svg version="1.1" id="Layer_1" xmlns="http://www.w3.org/2000/svg" xmlns:xlink="http://www.w3.org/1999/xlink" x="0px" y="0px"
	 viewBox="0 0 72 72" style="enable-background:new 0 0 72 72;" xml:space="preserve">
<g>
	<path d="M0,0v72h72V0H0z M56.3,26.7c0,0.4,0,0.9,0,1.3c0,13.2-10.1,28.5-28.5,28.5c-5.6,0-10.8-1.7-15.3-4.5
		c0.8,0.1,1.6,0.1,2.4,0.1c4.7,0,9-1.6,12.4-4.2c-4.4,0-8.1-3-9.4-6.9c0.6,0.1,1.2,0.2,1.9,0.2c1,0,1.8-0.2,2.7-0.4
		c-4.5-0.9-8-4.9-8-9.8v-0.1c1.4,0.8,2.9,1.2,4.5,1.3c-2.7-1.8-4.4-4.8-4.4-8.3c0-1.9,0.5-3.6,1.4-5c4.9,6,12.3,10.1,20.6,10.5
		c-0.2-0.7-0.3-1.5-0.3-2.3c0-5.5,4.4-10,10-10c2.9,0,5.4,1.2,7.3,3.2c2.3-0.5,4.3-1.3,6.3-2.5c-0.8,2.4-2.4,4.2-4.4,5.5
		c2-0.2,3.9-0.8,5.7-1.6C59.8,23.8,58.1,25.5,56.3,26.7z"/>
</g>
</svg>
